<?xml version="1.0" standalone="no"?>
<!DOCTYPE svg PUBLIC "-//W3C//DTD SVG 20010904//EN"
 "http://www.w3.org/TR/2001/REC-SVG-20010904/DTD/svg10.dtd">
<svg version="1.0" xmlns="http://www.w3.org/2000/svg"
 width="300.000000pt" height="165.000000pt" viewBox="0 0 300.000000 165.000000"
 preserveAspectRatio="xMidYMid meet">
<metadata>
Created by potrace 1.10, written by Peter Selinger 2001-2011
</metadata>
<g transform="translate(0.000000,165.000000) scale(0.100000,-0.100000)"
fill="#000000" stroke="none">
<path d="M2679 1623 c-120 -62 -161 -203 -93 -321 27 -47 81 -87 131 -97 27
-5 32 -10 31 -36 -1 -28 -3 -29 -49 -29 -56 0 -72 -18 -67 -78 3 -34 6 -37 37
-40 24 -3 40 3 58 20 l25 23 -7 -35 c-13 -61 -36 -109 -56 -115 -11 -4 -17
-11 -14 -16 9 -14 23 -11 45 11 20 20 20 20 20 -254 0 -287 4 -334 27 -343 36
-14 38 10 36 375 -1 252 2 344 8 312 18 -79 95 -121 121 -65 8 18 8 29 1 36
-7 7 -12 3 -17 -15 -13 -52 -68 -22 -80 44 -3 19 -13 48 -21 64 -20 38 -19 40
7 22 29 -20 107 -20 136 0 27 19 29 64 4 87 -29 27 -95 22 -131 -9 l-31 -26 0
31 c0 25 5 32 28 37 52 12 111 54 136 97 19 33 24 57 25 115 1 40 -5 87 -12
105 -20 47 -89 105 -134 112 -21 3 -47 8 -57 10 -26 5 -10 -8 49 -40 62 -34
75 -45 99 -85 l18 -32 -26 17 c-20 14 -29 15 -40 6 -12 -10 -20 -9 -41 5 -24
16 -27 16 -45 -1 -18 -16 -21 -16 -53 4 l-34 21 -33 -35 c-26 -26 -37 -32 -47
-24 -31 26 -7 69 65 115 28 18 52 38 52 44 0 15 -12 12 -71 -17z m61 -158 c6
-48 35 -69 56 -41 8 11 14 32 14 48 0 18 5 28 15 28 12 0 15 -15 15 -73 0 -46
5 -80 14 -92 13 -18 14 -17 30 7 14 21 15 39 10 92 -4 43 -3 66 3 66 13 0 23
-34 23 -81 0 -44 22 -68 45 -49 19 16 19 7 -1 -33 -23 -46 -64 -86 -103 -103
-39 -17 -128 -18 -168 -3 -45 16 -100 77 -113 123 -15 55 -10 121 10 121 11 0
18 -19 26 -68 13 -77 15 -81 42 -73 23 8 33 38 26 76 -7 33 21 103 38 98 7 -3
15 -22 18 -43z m45 -297 c0 -17 -6 -33 -12 -35 -9 -3 -13 7 -13 31 0 22 5 36
13 36 7 0 12 -13 12 -32z m163 -16 c16 -21 15 -27 -4 -46 -21 -22 -86 -20
-114 2 l-23 19 29 20 c52 36 86 38 112 5z m-198 -51 c0 -23 -49 -61 -79 -61
-15 0 -21 6 -21 24 0 26 14 41 45 49 42 10 55 7 55 -12z m38 -388 c0 -207 -2
-381 -5 -386 -18 -29 -23 53 -23 359 0 326 4 404 20 404 3 0 7 -170 8 -377z"/>
<path d="M124 1606 c-69 -32 -103 -79 -117 -159 -22 -133 38 -228 176 -271 35
-11 18 -29 -21 -22 -47 7 -82 -14 -82 -49 0 -33 51 -61 81 -44 11 6 23 9 25 6
7 -7 -35 -99 -62 -134 -13 -17 -24 -37 -24 -44 0 -24 49 33 69 82 12 27 23 49
24 49 1 0 1 -164 -1 -363 -2 -309 -1 -366 12 -376 11 -10 19 -9 36 1 21 13 21
15 15 323 -3 171 -8 330 -11 355 l-6 45 26 -42 c26 -41 64 -63 99 -55 25 5 21
22 -6 22 -37 0 -117 98 -117 143 0 13 6 13 41 1 44 -15 73 -11 102 14 40 35 5
92 -58 92 l-30 0 36 23 c44 27 81 70 99 117 7 19 16 40 20 45 13 19 -26 144
-56 183 -64 80 -173 103 -270 58z m44 -11 c-25 -14 -63 -46 -84 -72 -64 -80
-61 -81 13 -5 39 39 74 73 79 73 37 6 54 5 54 -1 0 -10 -45 -67 -117 -149 -35
-39 -66 -83 -69 -97 -5 -19 -9 -22 -15 -12 -23 36 -9 61 88 154 54 51 95 95
93 98 -3 3 -50 -37 -104 -89 -53 -51 -95 -86 -91 -77 4 9 8 29 10 45 8 60 71
126 141 147 50 15 51 10 2 -15z m124 10 c2 -3 -35 -47 -84 -97 -49 -51 -103
-112 -120 -135 -17 -24 -33 -41 -36 -39 -6 7 33 60 105 140 35 39 69 86 75
104 8 22 18 32 33 32 12 0 24 -2 27 -5z m40 -53 c-30 -17 -123 -127 -197 -234
-22 -32 -45 -58 -51 -58 -6 0 -19 10 -30 21 -14 16 -16 23 -6 26 7 3 23 19 35
37 12 18 67 80 121 137 55 57 85 87 68 66 -47 -55 -38 -60 11 -6 34 38 45 45
60 37 17 -9 16 -11 -11 -26z m-21 -64 c-121 -154 -161 -212 -167 -243 -7 -40
-10 -41 -36 -19 -17 16 -17 18 10 49 15 18 61 77 102 131 78 102 120 148 128
139 3 -2 -14 -28 -37 -57z m89 33 c0 -3 -15 -15 -33 -27 -17 -11 -62 -65 -100
-120 -85 -124 -117 -164 -117 -143 0 19 76 132 160 237 49 60 68 78 77 70 7
-6 13 -13 13 -17z m-15 -61 c-4 -12 -35 -54 -69 -93 -71 -81 -100 -131 -93
-158 4 -16 0 -18 -32 -16 l-37 2 54 70 c30 39 69 93 87 120 34 53 85 108 92
101 3 -3 2 -14 -2 -26z m26 -4 c-9 -10 -8 -15 4 -20 30 -11 18 -73 -27 -142
-24 -35 -49 -64 -56 -64 -20 0 -6 36 44 112 24 36 44 72 44 79 0 8 -12 -4 -26
-26 -40 -60 -50 -66 -21 -11 15 26 24 52 21 57 -3 5 1 19 7 31 8 15 14 18 17
10 2 -7 -1 -19 -7 -26z m-80 -123 c-25 -50 -28 -66 -22 -96 9 -40 1 -48 -47
-46 -26 0 -26 1 -5 9 22 9 49 47 40 57 -3 2 -13 -7 -22 -21 -16 -24 -46 -36
-45 -18 2 24 118 186 128 177 2 -2 -10 -30 -27 -62z m-67 -165 c-3 -5 7 -6 23
-3 15 3 21 2 13 -1 -8 -4 -23 -11 -34 -16 -13 -7 -16 -7 -12 1 4 6 0 11 -8 11
-9 0 -16 -4 -16 -10 0 -5 -4 -10 -10 -10 -5 0 -10 8 -10 18 0 14 8 19 30 19
16 0 27 -4 24 -9z m91 -10 c29 -13 34 -47 8 -47 -10 0 -29 -3 -43 -6 -14 -4
-39 -1 -55 6 l-30 11 30 14 c41 18 65 17 87 -3 10 -9 18 -11 18 -5 0 6 -12 18
-27 26 -33 18 -25 21 12 4z m-165 -48 c-12 -23 -70 -29 -70 -7 0 21 11 27 47
27 31 0 33 -2 23 -20z m39 -197 c1 -98 6 -197 10 -220 5 -24 5 -43 0 -43 -5 0
-9 -17 -8 -37 0 -31 2 -34 9 -18 8 19 9 19 9 -2 1 -13 -2 -23 -6 -23 -5 0 -8
-62 -8 -137 0 -116 -2 -138 -15 -138 -13 0 -15 49 -15 380 0 335 4 415 18 415
2 0 5 -80 6 -177z"/>
<path d="M174 1430 c-62 -74 -93 -125 -93 -150 -1 -8 12 9 29 38 16 29 52 80
81 113 28 33 49 62 47 65 -3 2 -32 -27 -64 -66z"/>
<path d="M1508 1620 c-50 -15 -105 -52 -123 -82 -13 -22 -18 -53 -19 -117 -1
-81 1 -91 29 -137 25 -39 43 -55 93 -79 48 -24 62 -35 62 -53 0 -19 -3 -21
-19 -12 -30 15 -56 12 -85 -11 -33 -26 -34 -62 -1 -94 26 -27 73 -33 93 -13
17 17 16 -4 -2 -64 -22 -72 -34 -90 -57 -83 -22 7 -27 -13 -5 -21 23 -9 49 11
62 48 10 27 13 -26 13 -294 l1 -328 24 0 c13 0 27 7 30 16 3 9 6 79 6 157 0
103 3 138 11 127 8 -11 9 -3 5 30 -3 25 -8 131 -11 235 -6 192 1 213 26 93 10
-45 33 -78 46 -65 3 4 1 12 -5 19 -9 11 -42 123 -42 142 0 4 8 2 18 -3 12 -7
26 -6 43 2 33 17 37 62 8 93 -24 26 -49 30 -80 14 -16 -9 -19 -7 -19 13 0 19
8 26 48 38 26 8 47 19 47 26 0 6 4 15 9 20 5 5 6 3 2 -4 -4 -7 -2 -13 4 -13 6
0 25 21 43 46 35 50 72 134 58 134 -5 0 -12 16 -15 35 -16 85 -70 166 -124
186 -28 11 -137 10 -174 -1z m188 -34 c25 -13 47 -37 61 -64 24 -48 39 -138
29 -176 -18 -72 -121 -136 -219 -136 -36 0 -56 4 -52 10 3 6 -4 10 -15 10 -34
0 -76 36 -99 83 -23 48 -28 117 -8 117 9 0 9 2 0 8 -9 6 -10 17 -3 44 24 85
88 126 196 126 54 0 81 -5 110 -22z m-96 -439 c0 -26 -4 -33 -20 -34 -16 -1
-20 4 -20 26 0 31 7 41 27 41 8 0 13 -12 13 -33z m62 -27 c-46 -11 -52 -20 -8
-13 38 6 40 4 30 -21 -10 -25 -74 -18 -74 8 0 21 23 36 55 35 l30 -1 -33 -8z
m-114 -37 c7 -48 -79 -68 -93 -22 -10 31 13 50 54 47 28 -2 37 -8 39 -25z
m152 -22 c-10 -19 -40 -30 -40 -15 0 8 44 43 48 39 2 -2 -1 -13 -8 -24z m-102
-381 c-1 -272 -5 -373 -13 -380 -18 -15 -25 101 -25 409 0 250 8 341 30 341 5
0 8 -164 8 -370z"/>
<path d="M994 1144 c-12 -3 -34 -18 -49 -35 -16 -16 -35 -29 -42 -29 -8 0 -12
-4 -9 -9 3 -5 -2 -30 -10 -56 -23 -66 -14 -126 25 -175 17 -21 31 -44 31 -49
0 -6 4 -10 8 -8 4 1 25 -7 45 -18 31 -16 37 -25 37 -52 0 -17 5 -35 11 -39 8
-5 10 6 7 35 -2 29 0 41 9 41 8 0 13 -12 13 -29 0 -16 3 -36 6 -44 8 -22 -24
-29 -56 -12 -59 31 -120 9 -120 -43 0 -39 77 -65 122 -41 19 10 20 9 15 -12
-4 -13 -7 -30 -7 -37 0 -8 -14 -27 -31 -43 -18 -16 -29 -33 -25 -36 10 -11 39
10 53 38 10 19 11 -26 6 -234 l-6 -259 29 4 29 3 0 272 c0 253 5 303 20 211 4
-24 12 -38 22 -38 16 0 12 21 -18 84 -11 22 -19 41 -19 42 0 1 13 -3 29 -9 38
-14 106 5 122 34 24 46 -63 111 -122 90 -29 -10 -29 -10 -29 28 0 35 3 39 30
44 16 4 47 23 70 43 99 90 77 255 -42 313 -45 21 -116 33 -154 25z m102 -29
c4 -10 13 -13 24 -10 17 5 86 -42 76 -52 -3 -3 4 -15 15 -27 18 -18 20 -30 15
-89 -6 -69 -20 -112 -35 -102 -5 2 -11 -4 -14 -15 -6 -25 -66 -51 -119 -52
-29 0 -52 8 -81 28 -119 84 -112 264 13 321 38 17 99 16 106 -2z m93 -459 c23
-28 -13 -66 -63 -66 -23 0 -46 24 -46 48 0 26 90 42 109 18z m-180 -7 c37 -13
40 -35 7 -50 -29 -14 -66 3 -66 30 0 33 11 37 59 20z m63 -357 c-2 -170 -7
-282 -12 -282 -11 0 -14 563 -3 574 4 3 9 3 12 -1 3 -5 5 -135 3 -291z"/>
<path d="M1154 1014 c-18 -13 -17 -14 9 -8 26 6 40 -10 15 -18 -9 -3 -9 -6 0
-12 7 -4 12 -2 12 4 0 6 4 9 9 5 22 -13 19 14 -3 28 -21 14 -26 14 -42 1z"/>
<path d="M1187 889 c-3 -12 -10 -18 -16 -14 -6 3 -11 1 -11 -5 0 -22 43 -6 46
18 5 28 -12 29 -19 1z"/>
<path d="M1026 814 c-4 -9 -3 -20 0 -23 4 -3 9 0 11 6 3 10 10 10 25 2 11 -6
22 -8 25 -6 2 3 -5 8 -16 12 -12 3 -21 11 -21 16 0 15 -17 10 -24 -7z"/>
<path d="M2095 1026 c-84 -39 -135 -116 -135 -205 0 -89 86 -197 168 -210 33
-6 37 -9 38 -39 1 -28 -1 -32 -17 -27 -26 9 -76 -3 -94 -22 -40 -40 10 -110
72 -100 l32 6 -20 -47 c-11 -26 -24 -51 -30 -56 -15 -16 -10 -26 12 -23 12 2
27 13 33 25 9 16 10 -18 8 -153 -3 -123 -1 -175 7 -175 7 0 11 72 13 230 2
145 7 230 13 230 6 0 11 -85 13 -230 1 -126 6 -230 10 -230 4 0 6 100 4 222
-2 197 0 219 12 192 7 -17 17 -45 21 -62 3 -18 11 -32 16 -32 15 0 10 44 -10
83 l-19 37 29 0 c30 0 69 30 69 54 0 7 -10 26 -22 41 -18 24 -26 27 -60 22
-37 -5 -39 -4 -36 21 2 21 10 28 41 35 51 12 129 89 145 143 34 115 -17 238
-115 280 -51 22 -140 18 -198 -10z m187 -5 c24 -10 54 -30 67 -45 24 -25 24
-26 6 -46 -27 -30 -83 -43 -172 -39 -117 6 -150 40 -98 104 19 23 23 25 19 9
-9 -36 21 -49 112 -49 69 0 87 4 101 19 17 18 17 19 -2 10 -26 -11 -140 -17
-171 -10 -25 7 -32 30 -12 42 13 8 65 21 90 23 9 1 36 -7 60 -18z m-233 -58
c-4 -44 3 -55 44 -73 78 -36 215 -22 269 27 27 24 34 8 15 -33 -24 -50 -106
-86 -208 -92 -127 -7 -189 28 -174 100 7 28 42 88 53 88 2 0 2 -8 1 -17z m332
-165 c-12 -12 -21 -25 -21 -30 0 -17 -85 -50 -158 -60 -67 -9 -84 -8 -131 8
-60 21 -85 49 -95 104 l-6 35 29 -32 c17 -19 46 -36 72 -43 93 -26 259 14 302
72 l22 30 3 -31 c2 -20 -4 -38 -17 -53z m2 -61 c-38 -64 -128 -107 -224 -107
-60 0 -90 15 -133 67 l-28 33 44 -20 c106 -48 310 -7 343 68 8 18 11 19 13 7
2 -8 -5 -30 -15 -48z m-173 -172 c0 -24 -5 -35 -15 -35 -10 0 -15 11 -15 35 0
24 5 35 15 35 10 0 15 -11 15 -35z m-42 -66 c2 -21 -3 -29 -27 -38 -43 -18
-75 -11 -79 18 -2 13 1 28 7 34 7 7 8 3 4 -13 -4 -13 0 -25 8 -31 23 -14 30
-10 17 10 -16 26 6 53 41 49 20 -2 27 -9 29 -29z m130 4 c3 -20 -1 -23 -31
-23 -23 0 -37 6 -41 16 -10 27 -7 30 32 29 31 0 38 -4 40 -22z"/>
<path d="M575 656 c-101 -44 -135 -165 -74 -259 26 -39 87 -77 123 -77 16 0
26 -6 26 -14 0 -17 -30 -16 -73 2 -45 19 -84 15 -101 -10 -23 -33 -20 -75 9
-103 29 -30 50 -31 93 -5 35 22 34 16 -5 -37 -14 -20 -29 -30 -38 -27 -8 4
-15 2 -15 -4 0 -18 33 -23 51 -7 9 9 23 31 31 48 12 30 13 27 19 -68 l5 -100
2 113 c1 67 6 112 12 112 6 0 11 -45 12 -112 l2 -113 5 105 6 105 15 -59 c9
-33 21 -61 27 -63 8 -3 6 15 -7 53 -11 31 -20 58 -20 60 0 1 9 0 20 -3 25 -7
66 19 73 46 8 34 -29 73 -67 69 -40 -4 -43 -32 -3 -36 31 -4 38 -32 8 -32 -38
0 -51 11 -51 45 0 29 4 34 31 40 79 18 145 140 119 220 -33 101 -141 152 -235
111z m165 -32 c37 -32 60 -73 60 -110 0 -26 -1 -26 -18 -11 -10 10 -27 17 -36
17 -16 0 -15 2 4 18 30 24 19 58 -26 80 -30 14 -43 14 -92 4 -71 -15 -82 -15
-82 -2 0 17 41 29 102 29 47 1 62 -3 88 -25z m0 -34 c17 -17 19 -24 9 -36 -16
-20 -63 -17 -132 8 -48 17 -65 19 -88 11 -28 -11 -28 -11 -12 10 14 19 27 22
109 25 84 2 96 0 114 -18z m-108 -48 c32 -10 60 -21 64 -24 3 -4 -23 -15 -58
-26 -53 -17 -68 -18 -93 -8 -49 20 -47 76 2 76 15 0 54 -8 85 -18z m-58 -82
c20 0 64 11 97 25 64 28 92 26 109 -6 15 -27 -3 -56 -39 -64 -16 -3 -69 1
-117 11 -66 13 -91 15 -105 6 -16 -10 -19 -7 -29 26 -16 59 -12 66 19 33 22
-24 38 -31 65 -31z m124 -55 c39 0 72 -3 72 -7 0 -13 -74 -56 -107 -63 -53
-11 -161 53 -135 79 4 4 27 4 52 -1 25 -4 78 -8 118 -8z m-107 -122 c18 -11
29 -26 29 -39 0 -19 -6 -22 -47 -22 -54 -1 -80 13 -62 34 6 8 23 14 37 14 20
0 23 3 14 12 -9 9 -18 9 -37 0 -51 -23 -39 -72 17 -72 17 0 27 -4 23 -10 -9
-15 -52 -12 -69 6 -19 18 -21 65 -4 82 17 17 65 15 99 -5z m154 -3 c15 -17 16
-24 7 -46 -10 -21 -18 -25 -49 -22 -20 2 -38 9 -41 16 -3 11 0 12 17 2 31 -16
61 -4 61 25 0 25 -21 38 -47 28 -11 -4 -14 -3 -9 5 11 18 41 14 61 -8z"/>
</g>
</svg>
