<?xml version="1.0" standalone="no"?>
<!DOCTYPE svg PUBLIC "-//W3C//DTD SVG 20010904//EN"
 "http://www.w3.org/TR/2001/REC-SVG-20010904/DTD/svg10.dtd">
<svg version="1.0" xmlns="http://www.w3.org/2000/svg"
 width="300.000000pt" height="300.000000pt" viewBox="0 0 300.000000 300.000000"
 preserveAspectRatio="xMidYMid meet">
<metadata>
Created by potrace 1.10, written by Peter Selinger 2001-2011
</metadata>
<g transform="translate(0.000000,300.000000) scale(0.100000,-0.100000)"
fill="#000000" stroke="none">
<path d="M2010 2514 c-349 -47 -900 -120 -1225 -163 -324 -42 -589 -82 -589
-87 1 -5 32 -243 70 -529 37 -286 70 -523 73 -526 3 -4 98 6 211 21 162 23
206 26 215 16 16 -20 315 -290 620 -561 154 -136 289 -257 301 -267 21 -18 24
-17 295 112 151 72 377 184 503 248 199 102 231 122 237 145 7 26 4 30 -45 54
-37 18 -56 34 -64 55 -9 23 -30 38 -119 79 -59 28 -112 52 -118 53 -36 6 -74
31 -87 59 -12 24 -40 46 -118 90 -56 31 -110 57 -119 57 -17 0 -82 49 -66 50
47 3 816 108 819 111 3 3 -26 241 -64 529 -39 289 -70 528 -70 533 0 9 63 17
-660 -79z m664 -71 c10 -76 20 -152 23 -169 l5 -30 -186 -24 c-102 -13 -188
-21 -190 -19 -8 7 -47 321 -41 327 5 5 301 48 351 51 19 1 22 -9 38 -136z
m-404 73 c0 -7 9 -82 20 -166 12 -84 19 -154 18 -155 -3 -3 -372 -53 -375 -51
-5 3 -44 328 -40 333 5 4 312 49 360 52 9 0 17 -5 17 -13z m-390 -50 c0 -7 9
-82 20 -166 12 -84 19 -154 18 -155 -3 -4 -372 -54 -374 -52 -8 12 -11 67 -4
67 6 0 10 -11 10 -25 0 -21 4 -24 28 -20 15 3 81 12 147 20 66 8 134 17 151
20 l31 5 -20 148 c-10 81 -20 148 -21 149 -1 1 -62 -6 -136 -16 -74 -10 -139
-15 -144 -10 -4 4 11 10 35 14 286 40 259 38 259 21z m-309 -48 c10 -18 8 -24
-7 -35 -16 -11 -19 -28 -20 -96 -1 -48 -8 -97 -17 -117 -11 -26 -14 -54 -10
-98 4 -46 3 -62 -7 -62 -9 0 -11 -11 -6 -38 4 -27 1 -45 -10 -61 -13 -17 -15
-37 -10 -84 5 -50 2 -69 -13 -97 l-19 -34 4 69 c6 140 21 274 31 287 6 7 13
54 17 103 5 81 11 128 32 248 7 42 18 47 35 15z m-51 4 c0 -7 -1226 -173
-1274 -172 -75 1 72 24 611 95 667 89 663 89 663 77z m355 -111 c9 -62 14
-118 12 -124 -3 -11 -13 50 -34 203 -3 25 -3 42 1 39 3 -3 13 -56 21 -118z
m-34 77 c0 -18 6 -70 12 -115 l13 -82 -26 -5 c-14 -3 -63 -10 -110 -16 -47 -6
-99 -13 -116 -15 l-32 -5 -12 101 c-16 130 -15 132 130 152 149 21 140 22 141
-15z m-328 -40 c-3 -29 -11 -75 -19 -102 -8 -27 -14 -79 -14 -116 0 -39 -5
-71 -12 -78 -8 -8 -13 -45 -14 -95 -1 -45 -7 -95 -13 -111 -6 -16 -9 -43 -6
-60 5 -25 -29 -335 -38 -341 -19 -14 -72 -22 -90 -14 -31 14 -370 -42 -396
-65 -30 -27 -145 -54 -340 -81 -102 -14 -186 -23 -187 -22 -2 2 -32 220 -67
485 l-63 482 31 5 c16 3 298 40 625 84 327 43 598 79 602 80 4 0 5 -23 1 -51z
m-1213 -598 c35 -270 67 -494 70 -499 3 -5 84 2 180 15 189 25 227 28 216 17
-7 -7 -408 -64 -413 -59 -3 3 -133 984 -133 1004 0 6 4 12 8 12 5 0 37 -221
72 -490z m2404 463 c8 -31 40 -312 36 -317 -3 -2 -86 -15 -185 -28 -161 -21
-181 -22 -186 -9 -10 28 -43 311 -36 317 5 5 292 49 349 53 9 0 19 -7 22 -16z
m-389 -55 c3 -13 13 -89 23 -169 l18 -147 -130 -17 c-72 -9 -156 -20 -186 -25
-30 -4 -57 -6 -59 -4 -7 7 -45 324 -39 329 4 5 284 47 355 54 7 0 15 -9 18
-21z m-394 -30 c7 -23 44 -338 40 -338 -3 0 -87 -11 -186 -24 -99 -14 -182
-22 -184 -20 -3 2 -14 78 -26 168 l-21 164 130 17 c72 9 154 20 181 25 28 4
53 8 58 9 4 0 7 0 8 -1z m-362 -255 l17 -132 -20 -5 c-33 -9 -66 -7 -66 4 0 6
14 10 30 10 17 0 33 6 36 14 3 8 -2 62 -10 121 -9 58 -15 120 -15 138 2 41 5
27 28 -150z m-15 -92 c-9 -10 -13 9 -18 89 l-5 85 13 -85 c8 -47 12 -87 10
-89z m-25 20 c1 -15 -3 -21 -8 -15 -11 12 -22 100 -13 109 7 7 20 -51 21 -94z
m1231 72 c0 -5 9 -79 21 -166 12 -87 19 -160 17 -162 -7 -8 -363 -52 -369 -46
-7 7 -51 323 -45 328 2 3 319 48 364 52 6 0 12 -2 12 -6z m-381 -120 c23 -166
33 -254 29 -258 -8 -9 -363 -53 -369 -47 -7 7 -51 323 -46 328 1 2 83 14 182
27 99 14 183 25 186 26 4 0 12 -34 18 -76z m-399 18 c0 -5 9 -76 20 -157 11
-82 20 -154 20 -160 0 -16 -31 -27 -43 -15 -5 5 -1 12 12 16 18 5 21 12 16 38
-5 30 -35 254 -35 261 0 1 -78 -8 -172 -20 -95 -13 -176 -23 -179 -24 -3 0 0
-42 7 -92 12 -86 12 -131 0 -77 -10 44 -28 181 -24 184 2 1 84 14 183 28 99
13 183 25 188 26 4 0 7 -3 7 -8z m0 -179 c7 -57 10 -105 8 -108 -3 -2 -11 37
-17 88 -6 51 -14 109 -16 128 -4 26 -3 30 3 15 5 -11 15 -66 22 -123z m-386
96 c3 -18 8 -64 10 -103 l5 -70 -14 80 c-7 44 -14 86 -14 94 -1 10 -13 12 -51
9 -27 -3 -50 -2 -50 3 0 10 26 16 71 18 34 1 37 -2 43 -31z m356 -65 c6 -54
14 -108 17 -120 5 -20 1 -23 -27 -23 -19 0 -63 17 -106 40 -73 39 -73 39 -115
25 -23 -9 -43 -14 -44 -13 -1 2 -6 35 -11 75 l-10 72 41 6 c22 3 81 12 130 19
50 8 95 14 101 15 7 1 16 -36 24 -96z m-491 -91 c-24 -53 -29 -60 -25 -32 3
19 8 60 11 90 4 30 9 66 12 80 5 22 7 19 19 -23 12 -46 11 -52 -17 -115z m194
53 c4 -35 3 -52 -2 -40 -5 11 -11 49 -15 85 -3 39 -2 55 3 40 4 -14 11 -52 14
-85z m-70 -10 c4 -47 3 -59 -2 -35 -13 53 -22 149 -12 125 5 -11 11 -51 14
-90z m-29 33 c4 -35 9 -72 12 -83 4 -17 -2 -23 -42 -33 -63 -17 -71 -6 -41 54
17 34 22 55 16 69 -13 33 -10 43 14 48 12 2 25 5 28 6 4 0 10 -27 13 -61z
m299 -118 l98 -49 -43 -11 c-24 -6 -96 -27 -160 -46 -65 -19 -123 -34 -129
-34 -6 0 -45 23 -86 52 -87 60 -96 51 92 102 72 19 130 35 130 35 0 1 44 -21
98 -49z m-325 -105 l71 -50 1 -52 c0 -67 -16 -69 -65 -10 -20 24 -61 58 -91
76 -34 21 -51 38 -46 45 29 46 37 54 47 48 6 -4 43 -29 83 -57z m454 11 l17
-34 -177 -65 c-97 -36 -185 -69 -196 -73 -17 -6 -18 -3 -11 47 4 30 8 55 10
57 2 2 323 99 336 101 3 1 13 -14 21 -33z m-591 -33 c49 -31 87 -59 84 -61 -2
-2 -83 -19 -180 -38 l-177 -33 -79 67 c-44 37 -75 68 -71 70 16 5 287 50 311
51 13 0 62 -24 112 -56z m-368 -73 l77 -65 -6 -55 c-3 -30 -8 -57 -9 -59 -6
-5 -44 27 -130 107 l-76 71 27 36 c15 20 30 34 34 33 4 -2 41 -32 83 -68z
m1144 10 c46 -25 83 -47 83 -50 0 -3 -71 -36 -157 -73 l-157 -67 -91 61 c-49
34 -90 64 -90 66 0 8 299 112 315 110 8 -1 52 -22 97 -47z m-1298 4 c-12 -15
-3 -27 81 -106 52 -49 105 -96 118 -105 22 -15 41 -14 137 14 18 5 18 3 5 -10
-8 -9 -41 -22 -72 -30 l-58 -15 -87 81 c-49 44 -110 100 -136 125 -27 24 -47
45 -45 47 7 6 63 22 67 19 2 -2 -2 -11 -10 -20z m100 -169 c54 -49 100 -98
100 -108 1 -10 -3 -17 -8 -15 -5 2 -68 56 -140 122 -84 75 -131 125 -131 138
0 23 9 15 179 -137z m550 113 c6 -17 8 -35 4 -38 -11 -10 -414 -112 -419 -107
-3 3 1 29 9 58 l13 53 164 32 c216 42 215 42 229 2z m196 -17 c-18 -18 -84
-41 -90 -32 -3 5 14 16 37 24 52 19 65 20 53 8z m207 -186 c-3 -27 -6 -52 -8
-54 -2 -2 -25 15 -51 38 -27 23 -78 62 -116 88 -71 49 -70 45 -30 94 13 15 24
10 112 -50 l98 -66 -5 -50z m368 155 c7 -17 11 -32 9 -34 -8 -7 -362 -176
-364 -174 -1 2 1 25 4 53 l6 49 155 67 c85 37 160 68 166 68 6 1 17 -13 24
-29z m-581 -75 c56 -39 88 -67 80 -69 -8 -3 -86 -28 -174 -56 -87 -28 -162
-53 -165 -55 -4 -2 -42 25 -86 61 -43 36 -87 72 -98 80 -11 7 -18 15 -15 17 6
4 332 85 349 86 8 1 57 -28 109 -64z m639 37 c8 -6 -15 -20 -65 -42 -43 -18
-140 -64 -216 -101 l-138 -69 -39 23 c-22 12 -42 28 -45 35 -2 7 12 1 33 -13
20 -14 43 -25 52 -25 8 1 101 45 205 99 218 112 196 103 213 93z m230 -106 c3
-4 -306 -176 -316 -176 -11 0 -177 114 -180 124 -2 5 66 39 150 76 l152 67 96
-44 c52 -25 96 -46 98 -47z m-1247 -45 l95 -79 -10 -60 -9 -60 -119 106 c-100
89 -116 108 -106 121 26 34 41 51 47 51 4 0 50 -36 102 -79z m-171 29 c-11
-21 -15 -17 162 -174 l87 -78 218 82 c120 45 224 87 231 92 9 8 16 8 24 0 7
-7 10 -13 7 -15 -2 -3 -56 -21 -119 -42 -63 -20 -172 -60 -242 -87 l-127 -50
-145 129 c-79 70 -145 133 -146 138 -1 6 9 13 22 17 37 10 39 9 28 -12z m673
-71 c-9 -7 -406 -159 -409 -156 -1 1 3 27 9 58 l11 55 185 60 186 60 13 -35
c7 -19 9 -38 5 -42z m782 40 c9 -17 15 -32 13 -34 -2 -1 -85 -52 -185 -113
-176 -107 -183 -110 -182 -84 4 77 5 79 169 172 85 48 158 88 162 89 4 1 15
-13 23 -30z m-1292 -193 c37 -33 67 -68 67 -78 0 -10 -3 -18 -6 -18 -3 0 -53
44 -112 97 -59 53 -126 114 -149 135 -24 22 -43 47 -43 59 0 17 18 5 88 -58
48 -43 118 -105 155 -137z m926 14 c-1 -19 -4 -45 -7 -57 -7 -22 -7 -21 -42 8
-19 16 -62 48 -95 71 -33 23 -70 49 -82 58 l-22 17 25 35 25 35 99 -66 c95
-63 99 -68 99 -101z m-245 125 c-16 -25 -34 -32 -48 -18 -5 5 45 40 62 43 1 0
-5 -11 -14 -25z m681 3 c24 -11 12 -18 -205 -130 l-230 -118 -40 26 c-22 15
-40 31 -40 35 0 5 18 -3 40 -17 l40 -27 198 120 c108 67 200 121 204 122 4 0
19 -4 33 -11z m-656 -80 l101 -61 -181 -79 c-109 -47 -186 -75 -193 -70 -89
67 -185 153 -174 157 34 13 334 114 340 114 4 1 52 -27 107 -61z m691 43 c0
-6 -100 -61 -222 -123 -256 -130 -242 -124 -236 -108 3 10 428 235 451 239 4
0 7 -3 7 -8z m-1046 -210 l77 -65 -6 -50 c-4 -28 -10 -54 -14 -58 -3 -4 -59
40 -124 99 l-119 105 33 34 c37 38 19 46 153 -65z m-179 59 c-25 -26 -27 -32
-15 -43 46 -41 218 -194 236 -209 20 -18 25 -16 236 85 119 57 223 108 230
115 11 9 19 9 33 -2 18 -13 17 -15 -15 -29 -19 -8 -131 -58 -249 -111 -118
-53 -218 -95 -222 -94 -4 2 -76 64 -160 138 l-152 134 49 23 c63 29 63 29 29
-7z m665 -6 c7 -19 10 -37 8 -38 -13 -11 -412 -196 -415 -192 -2 2 2 28 9 56
l13 53 175 77 c96 43 180 78 187 79 6 1 17 -15 23 -35z m-597 -160 c136 -122
173 -166 142 -163 -21 1 -305 263 -305 281 0 10 2 18 5 18 3 0 74 -61 158
-136z m676 62 c-7 -6 -500 -236 -506 -236 -2 0 -3 7 -1 15 3 18 501 246 507
232 1 -4 1 -10 0 -11z"/>
<path d="M2445 2536 l-150 -21 3 -35 c6 -70 33 -254 37 -259 5 -4 346 36 351
42 1 1 -7 63 -17 137 -10 74 -18 141 -19 148 0 15 -22 14 -205 -12z m210 -120
c18 -126 16 -147 -12 -145 -17 1 -17 2 0 6 20 5 20 0 2 133 -16 113 -17 136
-11 129 3 -2 12 -58 21 -123z m-24 -11 c8 -63 11 -115 7 -115 -13 0 -232 -30
-254 -35 -20 -4 -22 2 -33 98 -7 56 -14 109 -17 118 -3 13 16 18 113 31 190
25 167 37 184 -97z m-296 -39 c9 -65 14 -121 11 -123 -5 -6 -11 25 -26 140
-11 84 -12 113 -6 106 2 -2 12 -57 21 -123z"/>
<path d="M2063 2486 c-83 -11 -154 -23 -156 -26 -3 -3 4 -66 14 -140 10 -74
18 -140 19 -146 0 -7 57 -3 176 12 98 13 178 25 179 26 1 2 -6 64 -16 138 -10
74 -19 141 -19 148 0 15 -9 14 -197 -12z m203 -125 c16 -115 14 -141 -8 -141
-10 0 -10 2 0 9 11 7 11 28 -2 122 -18 124 -18 135 -11 127 3 -3 12 -55 21
-117z m-25 -6 c8 -63 13 -115 12 -115 -9 0 -233 -32 -254 -36 l-26 -5 -13 108
c-6 59 -13 113 -14 118 -1 8 183 39 259 44 19 1 22 -9 36 -114z m-287 -115 c4
-30 4 -52 1 -48 -7 7 -35 193 -33 228 0 25 19 -78 32 -180z"/>
<path d="M2503 2186 c-83 -11 -154 -24 -158 -27 -5 -6 17 -214 30 -275 l5 -21
170 23 c94 12 174 25 177 28 3 3 -3 71 -13 151 -17 134 -19 145 -38 144 -12
-1 -89 -11 -173 -23z m196 -103 c6 -54 14 -111 16 -128 4 -24 3 -26 -4 -10
-12 25 -39 235 -30 235 3 0 11 -44 18 -97z m-35 60 c12 -59 27 -195 22 -200
-4 -5 -269 -42 -273 -38 -4 2 -34 227 -31 230 3 2 222 31 255 34 16 1 23 -6
27 -26z m-285 -115 c7 -61 15 -118 18 -125 3 -7 17 -13 32 -14 14 0 20 -3 13
-6 -7 -3 -23 -2 -36 1 -21 5 -23 14 -35 118 -7 61 -15 118 -18 125 -3 7 -1 13
4 13 5 0 15 -50 22 -112z"/>
<path d="M2118 2136 c-86 -12 -160 -25 -163 -28 -7 -7 25 -272 34 -287 6 -8
337 31 347 42 3 3 -3 70 -13 149 -14 110 -21 143 -33 144 -8 1 -86 -8 -172
-20z m191 -108 c7 -57 15 -114 18 -128 3 -14 2 -21 -3 -17 -11 10 -43 247 -33
247 3 0 11 -46 18 -102z m-35 60 c18 -110 27 -190 22 -195 -6 -6 -269 -43
-273 -39 -4 4 -34 228 -31 230 3 2 222 31 260 35 12 1 19 -9 22 -31z m-285
-113 c16 -131 17 -135 49 -136 15 0 21 -3 14 -6 -7 -3 -23 -2 -36 1 -20 5 -23
15 -35 113 -7 59 -15 117 -18 128 -3 13 -2 16 4 10 6 -5 15 -55 22 -110z"/>
<path d="M1732 2085 c-90 -12 -165 -25 -168 -28 -7 -7 26 -279 35 -289 7 -8
337 34 347 44 9 10 -30 291 -41 294 -6 1 -83 -8 -173 -21z m164 -3 c6 -4 17
-52 23 -107 7 -55 15 -111 18 -125 3 -14 2 -21 -3 -17 -5 5 -16 61 -24 125
l-15 117 -30 6 c-27 6 -27 7 -5 8 14 0 30 -3 36 -7z m-12 -44 c12 -68 27 -200
24 -202 -7 -5 -273 -35 -276 -31 -7 6 -32 218 -27 224 4 4 182 31 262 40 7 0
15 -14 17 -31z m-284 -129 c9 -65 13 -119 9 -119 -3 0 -11 46 -18 103 -7 56
-15 113 -18 127 -3 14 -2 21 3 17 5 -5 16 -62 24 -128z"/>
<path d="M2550 1835 c-91 -13 -165 -24 -165 -24 -1 -2 37 -296 39 -298 3 -3
347 45 352 49 4 4 -16 173 -32 266 -2 17 -10 32 -17 31 -7 -1 -86 -12 -177
-24z m200 -138 c7 -59 11 -110 8 -112 -3 -3 -10 41 -17 97 -7 57 -15 114 -17
128 -4 18 -3 21 4 10 5 -8 15 -63 22 -123z m-28 11 c9 -62 14 -115 12 -117 -4
-5 -277 -42 -279 -38 -4 6 -26 229 -23 231 3 2 223 32 259 35 13 1 19 -20 31
-111z m-297 -29 c15 -107 18 -146 11 -138 -4 4 -36 221 -36 243 0 5 2 7 5 4 3
-2 12 -52 20 -109z"/>
<path d="M2170 1785 c-91 -13 -168 -24 -171 -24 -5 -1 29 -292 35 -298 4 -4
345 43 350 48 3 2 -4 70 -14 149 -11 80 -20 146 -20 148 0 1 -3 2 -7 1 -5 -1
-82 -12 -173 -24z m190 -135 c9 -66 13 -120 10 -120 -4 0 -12 44 -19 98 -6 53
-14 111 -18 127 -3 17 -2 27 2 23 5 -4 16 -62 25 -128z m-29 13 c8 -60 14
-112 14 -118 0 -5 -43 -15 -95 -21 -52 -7 -116 -15 -142 -18 l-48 -7 -1 33 c0
18 -6 70 -13 116 -6 45 -9 82 -6 83 3 0 61 9 130 19 69 10 130 18 137 19 7 1
16 -38 24 -106z m-296 -42 c9 -62 14 -118 12 -124 -3 -11 -13 50 -34 203 -3
25 -3 42 1 39 3 -3 13 -56 21 -118z"/>
</g>
</svg>