<?xml version="1.0" standalone="no"?>
<!DOCTYPE svg PUBLIC "-//W3C//DTD SVG 20010904//EN"
 "http://www.w3.org/TR/2001/REC-SVG-20010904/DTD/svg10.dtd">
<svg version="1.0" xmlns="http://www.w3.org/2000/svg"
 width="300.000000pt" height="300.000000pt" viewBox="0 0 300.000000 300.000000"
 preserveAspectRatio="xMidYMid meet">
<metadata>
Created by potrace 1.10, written by Peter Selinger 2001-2011
</metadata>
<g transform="translate(0.000000,300.000000) scale(0.100000,-0.100000)"
fill="#000000" stroke="none">
<path d="M2007 2294 c-12 -12 -8 -51 7 -63 24 -20 58 4 54 37 -2 20 -9 28 -28
30 -14 2 -29 0 -33 -4z"/>
<path d="M1895 2217 c-10 -8 -16 -23 -13 -38 2 -19 9 -24 33 -24 25 0 31 4 33
27 4 34 -26 54 -53 35z"/>
<path d="M1329 2132 c-98 -63 -185 -198 -196 -305 -6 -55 -6 -55 -44 -61 -98
-16 -207 -86 -274 -177 -64 -87 -89 -173 -83 -292 3 -81 8 -102 41 -170 47
-100 115 -168 216 -216 65 -31 87 -36 167 -39 99 -5 176 11 247 51 38 21 39
21 49 2 23 -43 104 -109 174 -142 127 -61 279 -57 404 8 193 102 286 328 221
538 -33 108 -121 218 -206 258 -26 12 -34 21 -29 32 4 9 9 67 12 130 l4 114
-23 -8 c-35 -12 -136 -18 -174 -11 -71 14 -165 101 -184 172 -7 27 -9 28 -64
25 -74 -3 -139 26 -176 80 -14 21 -28 38 -32 39 -3 0 -25 -13 -50 -28z m133
-116 c33 -17 69 -26 97 -26 44 0 47 -2 70 -45 50 -94 154 -155 265 -156 36 -1
70 2 77 6 8 6 10 -13 7 -71 -7 -146 -90 -269 -227 -337 -61 -30 -73 -32 -171
-32 -97 0 -110 2 -172 32 -203 96 -289 339 -191 543 15 31 52 80 85 113 l59
57 25 -29 c13 -16 48 -41 76 -55z m-329 -346 c7 -62 54 -161 101 -216 72 -84
213 -154 310 -154 l45 0 -6 -37 c-22 -139 -107 -248 -240 -311 -52 -24 -70
-27 -163 -27 -99 0 -110 2 -171 32 -84 42 -150 108 -191 191 -28 55 -33 78
-36 156 -3 75 0 101 18 148 44 117 129 206 235 248 82 31 91 28 98 -30z m972
-194 c28 -28 64 -78 80 -111 27 -55 30 -68 30 -170 0 -99 -3 -116 -27 -168
-38 -81 -117 -161 -197 -199 -83 -40 -197 -49 -283 -24 -67 19 -162 82 -201
131 l-28 36 41 46 c53 61 100 160 107 227 l6 53 49 12 c116 26 241 118 288
211 l21 40 31 -16 c18 -9 55 -40 83 -68z"/>
<path d="M1355 1900 c-14 -43 44 -67 68 -28 8 12 7 21 -2 32 -19 23 -58 20
-66 -4z"/>
<path d="M1532 1728 c-19 -19 -14 -46 9 -59 18 -9 25 -7 43 10 16 17 18 25 10
39 -14 21 -45 27 -62 10z"/>
<path d="M1844 1686 c-12 -31 0 -51 31 -51 27 0 30 3 30 30 0 25 -4 30 -28 33
-17 2 -29 -2 -33 -12z"/>
<path d="M1325 1634 c-19 -20 -16 -43 8 -58 37 -23 77 35 41 61 -23 17 -29 16
-49 -3z"/>
<path d="M1615 1471 c-9 -31 5 -52 33 -49 33 4 50 31 33 52 -18 22 -58 20 -66
-3z"/>
<path d="M992 1598 c-23 -23 -7 -68 24 -68 14 0 44 27 44 40 0 13 -30 40 -44
40 -6 0 -17 -5 -24 -12z"/>
<path d="M1129 1349 c-9 -18 -7 -25 10 -43 17 -16 25 -18 39 -10 9 6 19 21 20
34 6 41 -49 56 -69 19z"/>
<path d="M862 1208 c-32 -32 8 -80 48 -58 34 18 19 70 -20 70 -9 0 -21 -5 -28
-12z"/>
<path d="M1450 1205 c-26 -31 13 -82 44 -56 19 16 21 42 4 59 -16 16 -33 15
-48 -3z"/>
<path d="M1178 1070 c-19 -15 -21 -22 -12 -37 22 -36 74 -23 74 18 0 31 -34
42 -62 19z"/>
<path d="M1982 1398 c-25 -25 -6 -68 30 -68 9 0 22 9 28 19 13 25 13 27 -6 45
-19 19 -36 20 -52 4z"/>
<path d="M1654 1176 c-8 -32 2 -46 31 -46 29 0 47 27 34 52 -15 28 -57 23 -65
-6z"/>
<path d="M1904 1186 c-12 -31 0 -51 31 -51 27 0 30 3 30 30 0 25 -4 30 -28 33
-17 2 -29 -2 -33 -12z"/>
<path d="M2046 1045 c-9 -9 -16 -20 -16 -25 0 -15 32 -41 48 -38 24 5 39 35
26 56 -15 23 -38 26 -58 7z"/>
<path d="M1702 958 c-32 -32 0 -78 42 -62 30 11 14 74 -19 74 -6 0 -16 -5 -23
-12z"/>
<path d="M1982 2118 c-18 -18 -14 -46 7 -58 25 -13 48 -4 56 21 12 38 -35 65
-63 37z"/>
<path d="M1887 1993 c-13 -12 -7 -50 9 -64 31 -26 70 25 44 56 -13 16 -42 20
-53 8z"/>
</g>
</svg>