<?xml version="1.0" standalone="no"?>
<!DOCTYPE svg PUBLIC "-//W3C//DTD SVG 20010904//EN"
 "http://www.w3.org/TR/2001/REC-SVG-20010904/DTD/svg10.dtd">
<svg version="1.0" xmlns="http://www.w3.org/2000/svg"
 width="300.000000pt" height="300.000000pt" viewBox="0 0 300.000000 300.000000"
 preserveAspectRatio="xMidYMid meet">
<metadata>
Created by potrace 1.10, written by Peter Selinger 2001-2011
</metadata>
<g transform="translate(0.000000,300.000000) scale(0.100000,-0.100000)"
fill="#000000" stroke="none">
<path d="M1463 2452 c-22 -49 -51 -73 -187 -164 -69 -46 -91 -79 -91 -136 0
-26 4 -59 8 -73 8 -25 6 -27 -33 -33 -89 -14 -163 -74 -176 -141 -5 -31 -1
-52 21 -106 5 -13 -2 -18 -33 -22 -43 -7 -113 -53 -137 -91 -9 -13 -17 -39
-17 -58 -1 -21 -11 -45 -29 -65 -31 -36 -45 -88 -34 -125 4 -12 19 -39 34 -58
19 -23 34 -62 45 -115 10 -44 46 -192 81 -330 34 -137 68 -279 76 -314 10 -47
21 -69 39 -82 120 -88 737 -92 942 -6 46 19 50 29 87 187 146 632 139 605 167
664 36 76 29 124 -27 182 -29 30 -29 32 -18 75 7 26 9 58 5 75 -11 42 -83 106
-149 133 -51 21 -57 26 -57 53 0 63 -57 136 -139 178 -35 17 -37 21 -39 71 -5
115 -107 260 -225 319 -33 16 -67 30 -76 30 -10 0 -25 -20 -38 -48z m99 -8
c71 -36 144 -112 179 -188 31 -67 52 -175 31 -162 -7 4 -12 18 -12 32 0 13 -4
24 -8 24 -4 0 -6 -16 -4 -35 3 -21 0 -35 -7 -35 -6 0 -11 14 -11 30 0 17 -4
30 -9 30 -4 0 -8 -15 -7 -32 0 -18 -3 -33 -9 -33 -5 0 -8 12 -6 28 1 15 -2 27
-8 27 -5 0 -11 -17 -13 -37 -4 -49 -28 -57 -28 -9 0 20 -5 36 -11 36 -7 0 -9
-12 -5 -34 5 -25 3 -35 -9 -40 -12 -4 -15 2 -15 30 0 21 -4 33 -10 29 -5 -3
-10 -19 -10 -36 0 -20 -5 -29 -16 -29 -12 0 -14 7 -9 31 5 24 4 30 -6 27 -8
-3 -14 -11 -15 -19 0 -8 -2 -22 -2 -31 -1 -10 -9 -18 -17 -18 -13 0 -15 7 -9
35 4 23 2 35 -5 35 -6 0 -11 -9 -11 -19 0 -30 -11 -51 -26 -51 -10 0 -13 7 -8
24 3 13 1 26 -4 30 -5 3 -12 -8 -16 -24 -8 -45 -36 -40 -29 5 4 23 2 35 -6 35
-6 0 -11 -9 -11 -19 0 -31 -11 -50 -25 -44 -10 3 -12 14 -8 34 3 17 1 29 -5
29 -6 0 -12 -12 -14 -27 -2 -17 -10 -29 -21 -31 -14 -3 -17 2 -15 24 2 15 -3
29 -9 31 -8 3 -13 -5 -13 -21 0 -16 -6 -26 -14 -26 -11 0 -13 9 -9 35 4 23 2
35 -6 35 -6 0 -11 -13 -11 -30 0 -45 -16 -36 -29 16 -20 79 -1 107 124 189 84
54 131 101 147 147 6 16 12 28 14 28 3 0 28 -12 56 -26z m266 -393 c74 -38
114 -90 127 -168 7 -44 -8 -61 -20 -23 -3 11 -11 20 -17 20 -5 0 -8 -6 -5 -12
3 -7 8 -21 12 -30 4 -11 0 -20 -14 -28 -19 -10 -21 -8 -21 25 0 49 -18 44 -22
-7 -4 -49 -27 -66 -25 -17 1 18 -4 34 -11 36 -9 4 -11 -5 -6 -36 4 -28 3 -41
-5 -41 -6 0 -11 11 -11 25 0 14 -5 25 -11 25 -6 0 -9 -7 -5 -15 6 -18 -2 -45
-15 -45 -5 0 -9 12 -9 26 0 15 -4 23 -11 19 -6 -4 -8 -14 -5 -22 7 -18 -11
-43 -31 -43 -9 0 -13 8 -11 22 2 11 -3 23 -9 25 -9 3 -13 -6 -13 -26 0 -17 -4
-31 -10 -31 -5 0 -10 14 -10 30 0 40 -18 39 -22 -2 -2 -17 -9 -33 -16 -36 -10
-3 -13 4 -10 24 2 15 -2 29 -9 31 -9 3 -13 -6 -13 -26 0 -21 -5 -31 -15 -31
-9 0 -15 9 -15 25 0 14 -4 25 -10 25 -5 0 -10 -11 -10 -25 0 -14 -2 -25 -4
-25 -2 0 -12 -3 -21 -7 -15 -5 -16 -1 -11 25 4 18 3 33 -3 37 -6 3 -11 -2 -11
-14 0 -29 -11 -51 -24 -51 -8 0 -11 11 -8 30 3 18 0 30 -7 30 -6 0 -11 -13
-11 -30 0 -20 -5 -30 -15 -30 -9 0 -15 9 -15 25 0 14 -4 25 -10 25 -5 0 -10
-11 -10 -25 0 -18 -5 -25 -19 -25 -14 0 -17 6 -14 24 3 13 0 27 -6 30 -7 5
-11 -4 -11 -23 0 -17 -4 -31 -10 -31 -5 0 -10 14 -10 30 0 17 -4 30 -10 30 -5
0 -10 -13 -10 -30 0 -21 -5 -30 -16 -30 -12 0 -14 7 -9 30 4 18 3 30 -4 30 -5
0 -11 -10 -13 -22 -5 -36 -32 -28 -36 10 -2 17 -8 32 -14 32 -6 0 -8 -13 -3
-36 5 -28 3 -35 -7 -32 -7 3 -14 21 -16 41 -2 20 -8 37 -14 37 -6 0 -8 -15 -6
-35 3 -23 0 -35 -8 -35 -15 0 -24 23 -24 61 0 16 -5 29 -11 29 -8 0 -10 -14
-6 -41 4 -28 2 -39 -6 -36 -7 2 -14 28 -17 58 -4 38 -8 49 -14 36 -5 -9 -6
-31 -4 -47 3 -20 0 -30 -8 -30 -18 0 -27 36 -19 76 3 21 2 34 -5 34 -5 0 -10
-11 -10 -24 0 -14 -4 -28 -10 -31 -6 -4 -10 16 -10 53 0 73 19 100 88 130 62
27 98 29 244 13 170 -19 277 -5 436 58 1 0 19 -8 40 -18z m273 -273 c60 -44
72 -95 39 -163 l-20 -40 5 38 c4 22 2 37 -4 37 -6 0 -14 -18 -17 -40 -4 -22
-13 -48 -20 -57 -12 -16 -13 -14 -14 19 0 20 -4 40 -10 43 -6 4 -10 -11 -10
-37 0 -41 -13 -68 -32 -68 -4 0 -8 18 -8 40 0 22 -4 40 -10 40 -5 0 -10 -20
-10 -45 0 -25 -2 -45 -4 -45 -2 0 -11 -3 -20 -6 -13 -5 -16 2 -16 35 0 54 -18
53 -22 -1 -2 -31 -8 -44 -20 -46 -15 -3 -18 4 -18 32 0 20 -4 36 -10 36 -5 0
-10 -18 -10 -40 0 -34 -3 -40 -20 -40 -18 0 -20 4 -14 35 4 21 2 35 -4 35 -5
0 -12 -18 -16 -40 -5 -31 -11 -40 -25 -40 -17 0 -18 4 -11 31 5 18 7 36 4 41
-10 15 -24 -3 -24 -31 0 -31 -16 -51 -42 -51 -15 0 -16 4 -6 24 6 14 7 33 3
43 -6 14 -10 10 -19 -22 -8 -29 -18 -41 -33 -43 -20 -3 -21 0 -16 32 4 24 2
36 -6 36 -6 0 -11 -10 -11 -22 0 -30 -10 -44 -38 -52 -21 -7 -22 -6 -16 32 4
25 2 42 -5 46 -7 5 -11 -2 -11 -19 0 -38 -17 -65 -42 -65 -16 0 -19 4 -14 23
11 35 12 42 2 47 -4 3 -13 -11 -20 -30 -9 -28 -17 -36 -40 -38 -25 -3 -28 -1
-21 15 11 27 11 47 0 53 -5 3 -11 -6 -13 -20 -3 -24 -26 -50 -44 -50 -5 0 -6
16 -2 35 4 21 2 35 -4 35 -5 0 -12 -13 -15 -30 -5 -24 -12 -30 -32 -30 -28 0
-29 3 -14 32 7 14 8 23 1 30 -7 7 -15 -1 -26 -26 -12 -29 -20 -36 -42 -36 -21
0 -25 3 -19 18 14 31 17 62 8 62 -5 0 -15 -16 -22 -35 -10 -28 -18 -35 -38
-35 -20 0 -24 4 -18 18 24 57 12 73 -17 22 -19 -34 -66 -45 -53 -12 24 57 12
73 -17 22 -10 -18 -25 -30 -38 -30 -25 0 -25 5 0 30 12 12 18 26 14 31 -4 7
-15 0 -29 -16 -18 -23 -26 -27 -50 -21 l-29 7 30 24 c21 18 25 24 12 25 -9 0
-20 -4 -23 -10 -9 -15 -51 -12 -65 5 -10 12 -10 15 3 15 8 0 20 7 28 16 11 14
9 15 -24 9 -30 -6 -37 -4 -37 9 0 9 6 16 14 16 8 0 18 5 22 12 5 8 0 9 -14 6
-28 -8 -29 11 -3 44 29 36 140 84 160 69 117 -82 478 -95 746 -26 78 20 182
71 195 95 10 19 11 19 55 0 25 -11 59 -29 76 -42z m86 -245 c56 -73 28 -159
-69 -207 -60 -30 -119 -33 -178 -10 -40 16 -42 16 -99 -10 -62 -28 -124 -33
-165 -15 -20 10 -35 8 -72 -6 -58 -22 -127 -22 -181 0 -34 14 -49 15 -74 6
-50 -17 -109 -13 -172 13 -48 20 -64 23 -88 14 -50 -17 -140 -5 -205 28 -47
23 -64 38 -83 75 -26 50 -25 77 8 119 l20 25 33 -31 c77 -74 176 -98 465 -114
177 -10 416 -1 537 20 109 19 213 59 248 94 18 18 36 34 40 35 4 0 20 -16 35
-36z m-1264 -234 c48 -16 76 -20 125 -15 79 7 82 -10 3 -19 -64 -7 -148 10
-186 39 -27 21 -15 20 58 -5z m1245 -1 c-10 -28 -171 -53 -225 -34 -14 4 -23
3 -23 -3 0 -27 134 -32 194 -7 43 18 44 13 21 -73 -8 -31 -42 -175 -76 -321
-39 -172 -67 -271 -78 -283 -17 -18 -161 -61 -161 -49 0 7 73 610 86 715 6 44
8 48 28 42 52 -16 122 -15 171 4 62 23 68 24 63 9z m-288 -22 c0 -30 -173 -64
-209 -42 -26 16 -7 24 47 19 53 -5 69 -1 160 36 1 1 2 -5 2 -13z m-930 -24
c41 -11 68 -12 108 -5 28 5 52 8 52 6 0 -10 41 -451 55 -583 8 -79 13 -145 11
-147 -7 -7 -113 31 -129 46 -11 11 -29 67 -47 147 -26 116 -122 500 -137 548
-4 16 -2 18 13 11 11 -4 44 -15 74 -23z m244 13 c56 -17 113 -19 149 -6 l24 9
7 -196 c3 -108 9 -282 13 -386 l6 -189 -89 8 c-49 4 -90 8 -92 10 -1 1 -18
168 -37 371 -20 203 -37 375 -40 382 -6 15 -1 15 59 -3z m280 -26 c27 -7 55
-5 98 6 71 18 68 18 68 4 0 -31 -126 -50 -189 -28 -42 15 -51 5 -12 -15 34
-18 117 -21 157 -6 15 6 29 9 31 7 3 -4 -20 -453 -33 -624 l-6 -83 -82 0 -83
0 -7 233 c-3 127 -9 299 -13 381 -6 144 -5 149 13 142 10 -5 36 -12 58 -17z
m384 -136 c-10 -76 -30 -237 -44 -358 -14 -121 -27 -221 -28 -223 -4 -4 -159
-22 -162 -19 -4 4 36 711 40 715 2 1 15 -2 30 -7 27 -11 113 0 144 19 37 21
38 12 20 -127z"/>
<path d="M1625 2314 c27 -65 16 -84 -47 -84 -27 0 -38 -4 -38 -15 0 -27 103
-7 119 23 11 21 -8 84 -28 90 -11 4 -12 0 -6 -14z"/>
<path d="M1151 1973 c-28 -23 -41 -93 -17 -93 12 0 16 9 16 35 0 28 5 38 25
47 14 6 25 15 25 20 0 14 -27 9 -49 -9z"/>
<path d="M1843 1963 c-13 -8 -23 -19 -23 -24 0 -15 26 -10 43 9 30 33 18 42
-20 15z"/>
<path d="M1700 1904 c-36 -10 -87 -13 -147 -11 -51 2 -93 0 -93 -4 0 -16 52
-22 153 -16 100 5 167 20 167 38 0 11 -12 10 -80 -7z"/>
<path d="M2025 1720 c-34 -35 -131 -84 -216 -107 -49 -14 -102 -18 -232 -18
-92 0 -167 -3 -167 -6 0 -15 38 -19 168 -19 151 0 256 19 354 64 61 28 147 99
131 109 -5 3 -22 -7 -38 -23z"/>
<path d="M2105 1460 c-124 -57 -361 -100 -556 -100 -66 0 -109 -4 -109 -10 0
-13 211 -13 320 0 156 20 410 94 410 121 0 13 -19 10 -65 -11z"/>
<path d="M885 1381 c-11 -19 109 -45 165 -36 58 10 51 28 -7 20 -32 -4 -65 -1
-98 9 -60 19 -53 18 -60 7z"/>
<path d="M2093 1210 c-12 -28 -6 -47 9 -32 5 5 8 20 6 33 l-5 24 -10 -25z"/>
<path d="M2065 1098 c-2 -7 -20 -85 -40 -173 -19 -88 -44 -195 -54 -238 -10
-42 -14 -80 -10 -83 12 -7 10 -15 70 246 28 123 53 230 56 236 2 7 0 15 -6 19
-6 3 -13 0 -16 -7z"/>
<path d="M922 1207 c2 -15 8 -26 13 -25 12 3 8 29 -7 43 -6 7 -8 1 -6 -18z"/>
<path d="M948 1103 c-8 -14 106 -495 117 -493 12 2 14 -9 -36 205 -22 94 -45
195 -50 225 -11 55 -23 79 -31 63z"/>
<path d="M1150 1252 c0 -5 18 -17 40 -27 43 -19 143 -16 164 5 8 8 -6 9 -54 4
-49 -5 -75 -2 -104 10 -45 19 -46 19 -46 8z"/>
<path d="M1178 1164 c-3 -5 6 -106 19 -224 31 -274 32 -285 43 -274 6 6 -1
101 -16 239 -25 225 -35 278 -46 259z"/>
<path d="M1234 604 c3 -9 6 -22 6 -30 0 -8 5 -14 10 -14 6 0 10 14 10 30 0 21
-5 30 -16 30 -11 0 -14 -5 -10 -16z"/>
<path d="M1690 1142 c0 -19 -16 -277 -25 -410 -4 -54 -2 -73 7 -70 6 2 13 26
15 54 1 27 7 126 13 221 12 211 12 223 0 223 -5 0 -10 -8 -10 -18z"/>
<path d="M1660 585 c0 -22 4 -34 10 -30 6 3 10 17 10 30 0 13 -4 27 -10 30 -6
4 -10 -8 -10 -30z"/>
<path d="M2873 2303 c26 -2 67 -2 90 0 23 2 2 3 -48 3 -49 0 -68 -1 -42 -3z"/>
<path d="M2554 1495 c0 -60 1 -84 3 -52 2 32 2 81 0 110 -2 29 -3 3 -3 -58z"/>
<path d="M2873 903 c26 -2 67 -2 90 0 23 2 2 3 -48 3 -49 0 -68 -1 -42 -3z"/>
</g>
</svg>
