<?xml version="1.0" standalone="no"?>
<!DOCTYPE svg PUBLIC "-//W3C//DTD SVG 20010904//EN"
 "http://www.w3.org/TR/2001/REC-SVG-20010904/DTD/svg10.dtd">
<svg version="1.0" xmlns="http://www.w3.org/2000/svg"
 width="300.000000pt" height="300.000000pt" viewBox="0 0 300.000000 300.000000"
 preserveAspectRatio="xMidYMid meet">
<metadata>
Created by potrace 1.10, written by Peter Selinger 2001-2011
</metadata>
<g transform="translate(0.000000,300.000000) scale(0.100000,-0.100000)"
fill="#000000" stroke="none">
<path d="M845 2308 c-2 -7 -9 -35 -15 -62 -22 -99 -38 -115 -173 -169 -186
-74 -278 -196 -279 -370 0 -95 18 -145 62 -167 62 -32 156 -44 345 -44 321 -1
508 52 549 155 23 56 21 146 -4 187 -11 18 -20 44 -20 58 0 39 -35 98 -81 138
-24 20 -46 36 -50 36 -4 0 -9 10 -13 23 -8 35 -70 94 -129 124 -29 14 -78 43
-109 64 -61 42 -76 46 -83 27z m128 -112 c83 -80 84 -171 5 -261 -30 -34 -52
-49 -91 -60 -79 -23 -280 -66 -285 -61 -2 3 14 24 37 48 26 28 76 63 140 97
107 55 137 83 147 136 5 29 -9 97 -33 153 -9 23 29 -2 80 -52z m-88 -44 c12
-74 -4 -95 -117 -154 -113 -59 -185 -120 -194 -164 -4 -22 -17 -36 -52 -54
-26 -14 -56 -39 -67 -56 -47 -74 -46 -74 -40 -5 14 143 77 237 198 294 40 19
96 45 125 58 62 27 107 73 117 120 9 39 19 25 30 -39z m242 -66 c17 -32 12
-79 -13 -114 -14 -20 -94 -69 -94 -58 0 3 9 21 21 41 39 65 43 125 14 200 -12
29 52 -32 72 -69z m129 -148 c56 -108 -49 -189 -340 -260 -179 -44 -262 -78
-278 -114 -6 -13 -20 -24 -30 -24 -41 0 -160 33 -165 46 -7 20 16 81 44 115
38 44 84 64 225 93 158 33 285 69 361 103 60 27 97 70 97 114 0 22 2 21 36
-12 20 -18 42 -46 50 -61z m56 -189 c0 -30 -5 -66 -11 -81 -32 -82 -253 -139
-538 -138 l-108 1 27 24 c31 26 104 51 285 95 141 34 240 78 292 131 20 21 40
34 44 29 5 -4 9 -32 9 -61z"/>
<path d="M2115 2308 c-2 -7 -9 -35 -15 -62 -21 -96 -43 -119 -158 -162 -94
-36 -141 -65 -195 -123 -65 -69 -89 -127 -95 -229 -6 -114 9 -167 57 -192 65
-33 157 -44 356 -44 312 0 493 51 540 151 24 51 22 144 -4 189 -12 19 -21 46
-21 60 0 39 -35 98 -81 138 -24 20 -46 36 -50 36 -4 0 -9 10 -13 23 -9 36 -71
94 -134 126 -31 16 -79 45 -107 65 -53 38 -73 44 -80 24z m131 -113 c48 -48
69 -105 58 -160 -10 -56 -62 -125 -108 -146 -47 -20 -316 -82 -324 -74 -13 13
102 105 188 150 139 74 164 122 120 237 -11 29 -20 54 -20 56 0 10 49 -27 86
-63z m-90 -43 c11 -73 -6 -95 -118 -154 -113 -59 -185 -120 -194 -164 -4 -22
-17 -36 -52 -54 -26 -14 -56 -39 -67 -56 -47 -74 -46 -74 -40 -5 16 170 103
270 293 337 71 25 128 75 143 125 14 46 25 37 35 -29z m241 -66 c17 -32 12
-79 -13 -114 -13 -19 -94 -69 -94 -58 0 2 11 23 24 47 39 72 41 113 10 194
-11 29 53 -32 73 -69z m143 -196 c0 -86 -100 -150 -324 -205 -76 -19 -166 -43
-200 -55 -59 -19 -109 -54 -118 -82 -4 -10 -21 -10 -88 4 -46 9 -88 22 -93 27
-15 15 8 83 40 121 38 45 83 64 225 94 265 55 415 111 442 165 9 16 16 40 16
53 1 20 7 16 50 -30 42 -45 50 -59 50 -92z m43 -143 c0 -100 -39 -140 -170
-176 -139 -37 -480 -58 -471 -29 9 26 72 50 243 94 199 50 285 86 342 143 22
23 42 36 47 31 5 -5 9 -33 9 -63z"/>
<path d="M1435 1498 c-2 -7 -11 -42 -20 -78 -18 -76 -47 -108 -121 -135 -107
-39 -156 -66 -207 -114 -76 -72 -109 -144 -115 -249 -6 -115 10 -167 58 -192
64 -33 164 -45 360 -44 310 0 488 50 535 150 24 52 23 144 -4 190 -12 19 -21
46 -21 60 0 39 -35 98 -81 138 -24 20 -46 36 -50 36 -4 0 -9 10 -13 23 -8 35
-70 94 -129 124 -29 14 -78 43 -109 64 -61 42 -76 46 -83 27z m128 -112 c51
-49 72 -105 61 -161 -10 -56 -62 -125 -108 -146 -47 -20 -316 -82 -324 -74
-13 13 102 105 185 148 133 69 158 108 131 207 -8 30 -19 63 -23 74 -7 16 -5
17 12 7 11 -5 41 -30 66 -55z m-87 -44 c10 -69 -8 -98 -90 -139 -141 -71 -226
-144 -226 -195 0 -9 -21 -26 -47 -40 -27 -13 -57 -38 -68 -55 -48 -73 -46 -73
-40 -5 7 77 25 129 64 186 42 61 99 100 207 141 103 40 148 77 166 136 13 46
24 37 34 -29z m241 -66 c17 -32 12 -79 -13 -114 -13 -19 -94 -69 -94 -58 0 2
11 23 24 47 40 73 42 111 11 194 -12 29 52 -32 72 -69z m143 -195 c0 -90 -97
-149 -345 -211 -174 -44 -280 -88 -290 -121 -6 -19 -12 -21 -59 -15 -71 10
-127 27 -133 42 -8 20 16 81 44 115 38 44 84 64 225 93 265 55 415 111 442
165 9 16 16 40 16 53 0 20 6 17 50 -29 43 -44 50 -57 50 -92z m43 -115 c7 -46
-10 -116 -35 -143 -53 -56 -210 -91 -448 -100 -158 -6 -174 -5 -162 10 24 28
100 56 260 96 178 43 277 85 330 140 21 21 40 36 43 35 4 -2 9 -19 12 -38z"/>
</g>
</svg>