<?xml version="1.0" standalone="no"?>
<!DOCTYPE svg PUBLIC "-//W3C//DTD SVG 20010904//EN"
 "http://www.w3.org/TR/2001/REC-SVG-20010904/DTD/svg10.dtd">
<svg version="1.0" xmlns="http://www.w3.org/2000/svg"
 width="300.000000pt" height="376.000000pt" viewBox="0 0 300.000000 376.000000"
 preserveAspectRatio="xMidYMid meet">
<metadata>
Created by potrace 1.10, written by Peter Selinger 2001-2011
</metadata>
<g transform="translate(0.000000,376.000000) scale(0.100000,-0.100000)"
fill="#000000" stroke="none">
<path d="M1476 3429 c-21 -16 -26 -29 -26 -63 0 -35 -5 -46 -30 -64 -16 -13
-30 -29 -30 -37 0 -9 -10 -15 -24 -15 -27 0 -51 -20 -61 -50 -13 -42 57 -120
143 -156 34 -15 34 -17 -2 -66 -28 -39 -56 -35 -70 10 -6 16 -3 22 8 22 9 0
16 5 16 11 0 6 -9 8 -22 3 -13 -4 -35 -7 -50 -8 -30 -1 -39 -21 -10 -21 21 0
42 -13 42 -26 0 -5 -11 -9 -25 -9 -14 0 -25 -5 -25 -10 0 -7 36 -9 103 -7 78
3 107 1 125 -11 21 -14 22 -16 6 -33 -20 -23 -44 -25 -44 -4 0 24 -29 32 -75
20 -53 -13 -75 -31 -25 -20 59 13 74 11 78 -8 3 -16 1 -17 -16 -6 -26 16 -48
6 -71 -31 -15 -25 -20 -28 -25 -15 -3 9 -6 30 -6 46 0 29 -14 39 -24 17 -9
-23 -48 33 -41 59 6 26 -9 32 -19 7 -12 -31 -6 -54 19 -70 32 -21 32 -34 1
-34 -31 0 -40 -14 -21 -30 20 -16 16 -80 -5 -98 -10 -9 -11 -15 -4 -18 6 -3
20 -11 30 -18 18 -14 18 -15 0 -35 -15 -17 -17 -24 -8 -33 19 -19 14 -33 -18
-45 -16 -6 -30 -18 -30 -27 0 -24 22 -19 54 14 31 32 46 38 46 18 0 -7 -21
-31 -47 -54 -48 -42 -51 -64 -8 -64 13 0 25 -5 27 -11 3 -9 10 -9 27 0 19 10
26 10 40 -3 22 -20 30 -20 51 -1 16 14 21 14 51 -4 51 -30 92 -31 104 -3 6 14
15 20 25 16 39 -15 111 -16 128 -2 21 18 73 40 79 34 2 -2 -9 -12 -26 -22 -17
-10 -31 -22 -31 -26 0 -13 14 -8 41 15 20 17 28 35 32 75 6 52 1 62 -21 40 -9
-9 -12 -8 -12 4 0 20 19 33 43 30 9 -2 17 2 17 7 0 6 -6 11 -14 11 -8 0 -17 7
-20 16 -8 21 -8 21 14 27 29 8 24 33 -9 47 -16 6 -32 19 -35 27 -7 18 10 43
30 43 21 0 17 18 -6 30 -29 16 -24 40 11 52 30 10 30 10 11 32 -23 25 -34 64
-21 72 5 3 9 0 9 -6 0 -6 5 -8 10 -5 17 10 11 23 -17 39 -74 40 -72 40 -99 28
-14 -7 -22 -16 -19 -22 3 -6 15 -5 31 2 19 9 27 9 37 -1 9 -10 8 -15 -7 -27
-25 -18 -67 -18 -92 1 -19 14 -19 14 1 15 14 1 10 5 -14 16 -24 10 -38 11 -45
4 -7 -7 -5 -10 7 -10 32 0 17 -19 -18 -22 -20 -2 -35 -7 -34 -13 0 -5 4 -9 8
-8 65 17 64 17 52 -6 -14 -25 -78 -30 -87 -7 -4 10 -18 12 -51 8 -31 -3 -44
-1 -39 6 3 5 15 8 26 5 17 -5 20 0 20 26 0 26 4 31 25 31 18 0 25 5 25 20 0
18 3 19 22 9 l22 -12 -27 -14 c-15 -7 -27 -20 -27 -29 0 -34 57 17 113 100 71
104 96 160 97 207 0 47 -20 63 -67 56 -33 -6 -41 -2 -84 38 -54 50 -82 56
-123 24z m77 -10 c35 -18 67 -51 67 -70 0 -19 -39 -71 -40 -52 0 18 -53 42
-86 40 -27 -2 -29 0 -26 28 4 33 28 65 49 65 8 0 24 -5 36 -11z m163 -67 c21
-13 23 -47 6 -92 -19 -52 -83 -159 -94 -160 -16 0 -7 22 36 85 52 78 65 128
40 156 -17 19 -10 26 12 11z m-18 -44 c2 -15 -5 -42 -14 -60 -23 -45 -66 -109
-70 -105 -4 3 23 161 31 185 3 7 15 12 27 10 16 -2 24 -11 26 -30z m-147 -9
c21 -18 21 -20 4 -13 -11 4 -35 8 -52 8 -32 0 -40 6 -26 19 13 14 51 6 74 -14z
m-99 -38 c-3 -31 0 -42 19 -55 13 -8 20 -18 17 -22 -10 -10 -88 58 -81 70 10
18 36 46 42 46 4 0 5 -17 3 -39z m106 -6 c19 -16 32 -21 39 -14 9 9 8 -25 -3
-79 l-5 -23 -37 30 c-68 56 -72 61 -72 86 0 34 38 34 78 0z m-160 -54 c10 -28
77 -101 93 -101 10 0 43 -49 37 -55 -10 -11 -82 19 -114 47 -69 60 -85 131
-32 137 3 1 11 -12 16 -28z m77 -42 c20 -22 34 -43 31 -47 -7 -6 -63 45 -77
71 -17 31 8 18 46 -24z m76 -8 c30 -31 37 -55 18 -67 -14 -9 -28 6 -50 55 -21
48 -9 53 32 12z m249 -198 c0 -16 4 -34 9 -41 5 -9 1 -22 -13 -37 -11 -13 -22
-22 -24 -21 -1 2 -6 27 -11 55 -7 43 -5 53 8 61 25 15 31 12 31 -17z m-97 -8
c20 -11 37 -23 37 -28 0 -14 -31 -20 -43 -8 -6 6 -21 11 -34 11 -22 0 -33 27
-17 43 8 7 5 8 57 -18z m-65 -47 c-4 -27 -48 -39 -48 -14 0 9 -4 16 -10 16 -5
0 -10 5 -10 10 0 6 16 10 36 10 31 0 35 -3 32 -22z m112 -23 c0 -20 -10 -23
-48 -13 -30 8 -38 7 -49 -8 -7 -10 -16 -15 -20 -11 -3 4 1 15 10 25 20 21 107
27 107 7z m-315 -22 c-19 -47 9 -71 45 -38 11 10 20 12 24 6 7 -11 -43 -41
-67 -41 -7 0 -21 6 -31 13 -17 13 -17 15 -2 45 17 33 44 46 31 15z m155 -13
c34 0 47 -15 30 -35 -6 -8 -9 -19 -5 -25 5 -7 14 0 26 19 10 17 26 31 35 31
13 0 16 -7 11 -35 -4 -26 -2 -35 8 -35 17 0 28 -17 16 -24 -5 -4 -16 1 -24 9
-18 18 -54 20 -59 3 -8 -23 -36 0 -34 26 3 26 -7 35 -19 16 -4 -6 -13 -9 -20
-8 -13 3 -15 0 -15 -21 0 -20 69 -41 111 -35 38 6 42 5 36 -10 -4 -10 -10 -29
-13 -42 -8 -31 -12 -30 -54 6 -38 32 -57 36 -92 19 -35 -15 -80 4 -76 33 2 12
8 23 15 25 7 3 9 -3 6 -17 -5 -20 -4 -21 16 -8 18 11 23 11 31 -2 5 -8 12 -11
16 -7 4 4 -5 20 -20 36 -27 28 -27 29 -7 36 25 8 28 30 5 39 -8 3 -13 10 -9
16 4 6 15 6 31 0 14 -6 38 -10 54 -10z m-235 -20 c22 -42 19 -58 -15 -75 -32
-16 -38 -30 -17 -38 7 -4 8 -6 1 -6 -18 -1 -37 26 -24 34 5 3 10 18 10 32 0
15 7 35 17 45 15 17 15 18 -5 18 -12 0 -22 5 -22 10 0 23 40 8 55 -20z m380
16 c18 -13 18 -14 -1 -24 -16 -8 -21 -6 -31 14 -13 28 1 33 32 10z m15 -50 c0
-7 7 -19 15 -26 19 -16 19 -40 1 -40 -16 0 -49 58 -40 71 8 14 24 11 24 -5z
m-312 -41 c-9 -19 -16 -23 -35 -19 -19 5 -23 2 -23 -15 0 -19 -3 -20 -21 -10
-21 11 -21 11 7 40 18 18 38 29 56 29 26 0 27 -2 16 -25z m377 -37 l26 -12
-23 -13 c-33 -18 -38 -16 -38 12 0 29 0 29 35 13z m-60 -18 c0 -9 -7 -14 -19
-12 -11 2 -16 -1 -13 -10 2 -8 17 -12 36 -10 35 2 38 -4 14 -30 -14 -16 -14
-22 -3 -43 7 -14 10 -28 7 -32 -10 -9 -49 35 -42 47 3 6 -6 15 -20 20 -24 9
-26 14 -20 43 4 17 9 36 12 40 8 14 48 3 48 -13z m-388 -11 c8 -8 8 -20 3 -35
-7 -17 -5 -26 4 -31 11 -7 36 -45 36 -56 0 -2 -13 -2 -30 1 -30 4 -39 16 -20
27 18 11 10 23 -20 30 -32 7 -37 23 -18 55 14 23 29 25 45 9z m101 2 c18 -11
-6 -64 -25 -57 -7 3 -13 1 -13 -4 0 -6 -4 -10 -9 -10 -5 0 -9 15 -8 34 0 19 4
33 8 30 4 -2 10 0 14 6 7 12 16 12 33 1z m125 -10 c-2 -6 2 -11 7 -11 6 0 10
-9 10 -20 0 -11 5 -20 10 -20 6 0 10 7 10 16 0 8 5 12 10 9 6 -3 10 -19 10
-35 0 -16 -4 -32 -10 -35 -5 -3 -10 -2 -10 3 0 5 -13 22 -30 38 -29 29 -42 80
-17 71 6 -2 11 -10 10 -16z m-33 -11 c0 -21 -24 -28 -35 -10 -8 14 3 30 21 30
8 0 14 -9 14 -20z m-67 -38 c-11 -26 -22 -39 -29 -34 -8 5 -4 19 13 45 31 49
39 43 16 -11z m198 -46 c-26 -25 -33 -18 -25 23 6 30 7 31 26 14 18 -16 18
-17 -1 -37z m-141 19 c16 5 21 3 18 -6 -3 -8 -18 -14 -34 -14 -24 0 -30 5 -32
25 -2 24 -2 24 12 7 10 -13 21 -17 36 -12z m-60 -60 c0 -12 6 -27 13 -34 10
-11 7 -12 -17 -7 -22 5 -34 2 -52 -15 -12 -11 -27 -18 -33 -14 -17 10 -13 19
19 37 30 17 30 18 15 42 -23 35 -11 48 25 28 18 -10 30 -25 30 -37z m252 15
c9 -17 24 -30 33 -30 8 0 15 -4 15 -10 0 -5 -13 -10 -30 -10 -20 0 -30 -5 -30
-15 0 -8 -7 -15 -15 -15 -17 0 -20 16 -5 25 17 11 11 25 -16 35 l-26 10 24 20
c30 25 30 25 50 -10z m-167 -10 c-10 -11 -16 -23 -12 -26 3 -3 16 6 28 20 27
31 39 33 39 6 0 -11 -12 -27 -26 -36 -23 -16 -28 -16 -60 -1 -41 20 -44 44 -6
50 56 8 56 8 37 -13z m-185 -9 c0 -4 -13 -20 -30 -36 -33 -31 -39 -21 -15 25
10 19 20 27 30 24 8 -4 15 -9 15 -13z m-70 -20 c-6 -12 -18 -21 -27 -21 -13 0
-14 2 -2 18 29 36 49 39 29 3z m360 9 c19 -12 5 -26 -32 -35 -32 -8 -37 5 -12
29 18 18 23 19 44 6z m-124 -44 c27 -21 7 -35 -33 -24 -18 5 -33 13 -33 19 0
6 7 9 15 5 8 -3 15 -1 15 4 0 14 13 12 36 -4z"/>
<path d="M1164 2535 c-18 -14 -16 -14 16 -9 44 8 63 24 29 24 -14 0 -34 -7
-45 -15z"/>
<path d="M1840 2520 c0 -5 14 -10 30 -10 34 0 38 -7 13 -26 -16 -12 -14 -13
15 -8 50 10 38 -11 -23 -40 -78 -37 -133 -47 -260 -49 -152 -1 -296 29 -386
84 -36 21 -76 39 -90 39 l-24 0 -3 -216 c-2 -153 0 -219 8 -229 7 -8 28 -17
49 -21 20 -4 41 -10 46 -15 6 -4 17 -4 25 1 11 7 12 13 2 35 -7 15 -18 25 -25
22 -7 -2 -28 3 -47 12 l-35 16 0 170 c-1 94 2 180 5 192 5 22 6 21 59 -12 115
-73 222 -97 426 -96 113 1 183 14 256 51 l57 27 1 -155 c1 -86 4 -158 6 -161
3 -2 5 77 5 177 l0 181 -29 20 c-30 22 -81 28 -81 11z"/>
<path d="M1043 2084 c-3 -9 -2 -24 4 -33 9 -15 94 -52 193 -84 25 -9 65 -23
90 -32 37 -14 83 -17 250 -17 223 -1 301 12 407 65 l48 25 -3 -199 c-3 -134 0
-199 7 -199 6 0 11 65 13 188 4 229 1 256 -30 260 -12 2 -22 -1 -22 -7 0 -6 5
-11 10 -11 27 0 4 -24 -42 -45 -110 -50 -168 -59 -373 -58 -204 2 -231 6 -385
63 -47 17 -95 34 -107 37 -37 9 -49 31 -27 48 18 14 18 14 -4 15 -12 0 -25 -7
-29 -16z"/>
<path d="M1930 2080 c-8 -15 -8 -20 3 -20 14 0 37 19 37 32 0 16 -30 7 -40
-12z"/>
<path d="M1270 2055 c-14 -17 -15 -17 23 -33 36 -16 77 -15 78 1 0 6 4 2 9
-10 6 -14 21 -23 49 -28 22 -4 45 -4 51 0 13 8 13 45 0 45 -5 0 -10 -4 -10 -9
0 -15 -69 -5 -88 12 -13 12 -21 14 -29 6 -12 -12 -53 4 -53 21 0 15 -16 12
-30 -5z"/>
<path d="M1778 2047 c-47 -38 -25 -54 22 -17 26 21 45 26 35 11 -8 -14 7 -20
30 -11 17 6 15 9 -19 24 -21 9 -39 16 -40 16 0 -1 -13 -11 -28 -23z"/>
<path d="M996 2008 c-10 -94 -15 -418 -6 -418 4 0 7 -14 6 -31 -1 -39 13 -46
44 -21 29 23 21 52 -14 52 l-25 0 5 208 c2 114 7 217 9 229 3 12 1 24 -4 28
-5 3 -12 -18 -15 -47z"/>
<path d="M1531 2021 c-19 -12 -6 -41 18 -41 17 0 31 18 31 41 0 11 -31 11 -49
0z"/>
<path d="M1660 2016 c0 -9 -4 -16 -10 -16 -5 0 -10 5 -10 10 0 6 -7 10 -16 10
-9 0 -14 -6 -11 -12 5 -18 72 -17 72 1 0 8 -6 16 -12 19 -7 2 -13 -3 -13 -12z"/>
<path d="M2075 1574 c4 -11 9 -27 12 -36 4 -14 14 -15 59 -11 l54 6 0 -32 c0
-32 -13 -39 -40 -20 -11 8 -12 12 -2 16 17 7 5 23 -13 16 -8 -3 -15 -14 -15
-24 0 -15 -7 -19 -35 -19 -28 0 -35 -4 -35 -19 0 -28 -18 -36 -39 -17 -34 31
-53 13 -43 -39 4 -23 2 -27 -11 -22 -8 3 -32 9 -51 13 -30 5 -36 3 -36 -11 0
-13 -8 -16 -32 -14 -18 2 -52 0 -75 -5 -31 -5 -49 -3 -72 9 -37 19 -51 13 -51
-21 0 -29 -3 -30 -40 -3 -22 17 -37 20 -64 16 -20 -3 -38 -2 -41 3 -3 5 -18 5
-34 0 -19 -5 -33 -4 -40 3 -9 9 -17 8 -32 -1 -17 -11 -24 -9 -50 13 -37 30
-41 31 -64 5 -23 -25 -41 -25 -55 0 -8 15 -17 18 -38 14 -28 -6 -115 34 -169
76 -20 15 -34 19 -60 14 -32 -6 -33 -5 -33 25 0 17 5 31 10 31 6 0 10 4 10 9
0 4 -21 11 -47 15 -37 5 -49 3 -56 -9 -4 -9 -13 -13 -18 -9 -16 10 -59 -5 -59
-21 0 -8 10 -20 22 -26 l21 -11 -21 -17 c-28 -22 -31 -54 -8 -80 19 -21 19
-21 -7 -21 -31 0 -34 -8 -9 -26 15 -11 15 -16 4 -34 -7 -12 -12 -23 -10 -23
72 -35 75 -43 31 -73 -29 -20 -30 -21 -16 -48 10 -20 12 -35 6 -49 -7 -14 -5
-30 4 -49 15 -30 29 -36 35 -16 7 19 28 -2 28 -28 0 -30 -8 -30 -76 2 -54 25
-72 54 -34 54 11 0 20 5 20 10 0 12 -30 13 -47 2 -6 -4 -16 -20 -22 -35 -7
-18 -15 -25 -26 -21 -8 3 -15 2 -15 -2 1 -25 36 -46 116 -73 49 -16 114 -40
144 -54 68 -30 114 -40 314 -67 88 -12 167 -25 177 -30 27 -15 62 -107 54
-146 -6 -35 -106 -154 -130 -154 -6 0 -20 9 -30 20 -19 21 -45 27 -45 10 0 -5
9 -15 20 -22 16 -10 18 -20 13 -50 -4 -28 -2 -38 7 -38 8 0 43 -12 79 -26 100
-40 188 -39 271 3 34 18 69 33 76 33 15 0 18 27 8 54 -3 9 -29 23 -58 31 -28
9 -58 21 -67 28 -29 22 -59 81 -59 117 0 45 43 136 67 144 10 2 56 8 103 11
180 13 316 44 520 117 70 25 96 39 99 53 2 11 10 24 18 31 26 18 -30 54 -85
54 l-45 0 21 23 c29 31 28 38 -14 76 l-37 32 22 23 c14 15 21 35 21 61 0 26 7
46 21 62 l22 22 -26 10 c-32 13 -42 28 -27 46 6 8 9 19 5 26 -5 8 -1 9 14 4
15 -5 21 -2 21 9 0 10 -9 16 -24 16 -19 0 -22 4 -19 24 4 20 0 25 -26 31 -17
4 -44 4 -60 0 -25 -5 -30 -3 -33 16 -2 12 -9 25 -17 27 -10 4 -12 0 -6 -14z
m-1200 -50 c-17 -26 -14 -54 5 -54 6 0 9 4 6 9 -3 5 1 22 9 37 l15 29 1 -27
c1 -16 2 -33 3 -40 1 -7 -10 -15 -24 -18 -14 -3 -29 -16 -35 -28 -11 -26 -23
-27 -50 -6 -14 12 -16 18 -7 21 7 3 19 12 28 20 14 15 13 18 -13 40 l-28 24
33 -5 c24 -4 34 -1 38 9 4 8 13 15 21 15 13 0 13 -4 -2 -26z m162 -83 l42 -29
-31 -6 c-27 -5 -36 -2 -54 21 -20 26 -23 43 -6 43 4 0 26 -13 49 -29z m-63
-14 c15 -19 26 -44 26 -56 0 -18 4 -21 20 -16 26 8 25 1 -2 -35 -24 -33 -26
-34 -47 -21 -11 7 -10 13 4 35 14 20 15 30 6 39 -6 6 -11 19 -11 29 0 9 -9 22
-20 28 -11 6 -20 15 -20 20 0 20 20 9 44 -23z m-74 8 c-11 -13 -9 -15 13 -15
36 0 50 -22 41 -67 -5 -21 -7 -41 -6 -45 1 -5 -5 -8 -14 -8 -11 0 -14 5 -9 18
3 9 9 29 12 44 5 26 3 28 -36 34 -46 7 -48 10 -24 36 19 22 41 25 23 3z m1268
-8 c-16 -13 -28 -29 -28 -36 0 -11 -5 -9 -20 4 -19 18 -19 18 13 36 46 26 68
23 35 -4z m48 -42 c7 -6 10 -23 7 -43 -5 -33 -21 -38 -33 -11 -4 8 -13 25 -20
38 -11 21 -10 26 6 38 15 11 20 11 23 1 2 -7 10 -17 17 -23z m-136 5 c-20 -13
-80 -13 -80 0 0 6 21 10 48 10 34 0 43 -3 32 -10z m-1167 -20 c4 -4 5 -19 2
-33 -7 -28 -15 -27 -58 5 -27 20 -12 50 22 42 14 -4 30 -10 34 -14z m228 3
c25 -12 39 -25 39 -37 0 -19 0 -19 -21 0 -11 10 -41 21 -66 24 -26 3 -48 11
-51 18 -6 18 55 15 99 -5z m84 -13 c22 -24 38 -25 55 -5 19 23 32 18 28 -11
-4 -37 -30 -52 -61 -35 -14 7 -30 11 -35 7 -11 -7 -34 49 -25 58 10 10 19 7
38 -14z m914 -10 c19 -16 33 -31 30 -33 -16 -12 -82 -47 -90 -47 -5 0 -9 13
-9 29 0 16 -7 34 -16 42 -14 11 -13 14 8 25 32 18 38 17 77 -16z m-193 10 c19
-8 30 -8 38 0 18 18 36 11 36 -16 0 -18 4 -25 14 -21 8 3 17 -1 20 -10 6 -16
4 -15 -55 3 -11 4 -18 -2 -22 -18 -6 -22 -8 -21 -47 19 -22 23 -40 45 -40 48
0 8 26 6 56 -5z m-1118 -27 c-2 -10 -11 -19 -20 -21 -12 -2 -15 2 -11 17 7 25
36 28 31 4z m1052 -3 c3 -4 15 -12 27 -19 13 -6 26 -23 29 -36 3 -14 10 -25
15 -25 5 0 9 -9 9 -20 0 -11 -4 -20 -10 -20 -5 0 -10 9 -10 21 0 12 -5 19 -12
16 -7 -2 -20 10 -28 26 -10 19 -28 35 -49 42 -48 16 -55 40 -10 30 19 -4 36
-11 39 -15z m-729 -7 c13 -15 11 -16 -16 -8 -44 12 -77 9 -91 -9 -6 -9 -15
-16 -19 -16 -5 0 2 11 15 25 28 30 90 35 111 8z m224 8 c3 -5 21 -7 40 -4 28
4 35 2 35 -11 0 -10 -8 -16 -21 -16 -51 0 -80 -47 -42 -69 16 -8 15 -11 -7
-30 -14 -11 -34 -20 -45 -20 -19 0 -19 1 1 9 36 14 37 28 5 68 l-30 39 22 21
c24 24 33 27 42 13z m198 2 c-7 -2 -13 -13 -13 -23 0 -23 -43 -34 -70 -18 -42
27 -18 44 65 46 17 0 24 -2 18 -5z m142 -26 c1 -21 -4 -27 -21 -27 -17 0 -24
-7 -26 -27 l-4 -28 -14 28 c-12 26 -11 29 15 57 34 35 50 34 50 -3z m-830 -2
c34 -28 27 -44 -11 -26 -23 10 -26 10 -20 -5 11 -28 -6 -36 -20 -9 -11 21 -11
30 -1 46 15 24 15 24 52 -6z m735 1 c6 -8 10 -25 8 -38 -3 -22 -5 -21 -21 9
-9 18 -17 34 -17 38 0 10 18 5 30 -9z m-510 -4 c0 -4 -13 -13 -30 -19 -20 -8
-30 -18 -30 -32 0 -12 -6 -21 -15 -21 -23 0 -18 28 10 55 23 24 65 34 65 17z
m655 -12 c-11 -12 -16 -29 -13 -45 4 -20 3 -23 -8 -14 -28 23 -10 79 25 79 11
0 11 -4 -4 -20z m-555 -25 c0 -2 -7 -11 -17 -20 -15 -16 -17 -14 -30 15 -17
43 -17 43 17 25 17 -9 30 -17 30 -20z m984 27 c2 -4 1 -14 -4 -22 -7 -11 -12
-12 -21 -3 -6 6 -8 16 -5 22 8 13 23 14 30 3z m-384 -15 c0 -13 -39 -41 -47
-34 -2 3 0 15 7 26 12 23 40 29 40 8z m88 -33 c21 -43 22 -64 1 -64 -5 0 -9
12 -10 28 0 25 -2 24 -18 -13 -27 -61 -94 -87 -156 -61 -28 12 -31 17 -27 45
3 25 7 29 18 20 8 -6 14 -16 14 -22 0 -13 30 -47 41 -47 9 0 -47 86 -62 95
-12 8 -12 35 0 35 5 0 23 -22 41 -49 38 -60 61 -82 67 -63 3 6 11 12 19 12 8
0 14 4 14 10 0 5 -13 7 -30 4 -23 -5 -30 -3 -30 9 0 10 11 17 33 19 28 3 32 7
32 32 0 16 6 31 13 33 6 3 10 9 6 14 -3 5 -1 9 3 9 5 0 19 -21 31 -46z m194
-7 c10 -12 18 -30 18 -39 0 -20 16 -24 22 -7 2 7 23 2 57 -15 29 -15 50 -32
48 -39 -6 -17 -40 -9 -56 14 -16 22 -31 25 -31 5 0 -14 -21 -26 -47 -26 -9 0
-13 6 -10 14 3 8 -1 20 -8 26 -9 7 -13 21 -9 34 8 34 -27 60 -71 53 -36 -6
-44 0 -24 20 16 16 89 -11 111 -40z m-1085 22 c-4 -14 2 -28 18 -43 20 -18 21
-25 11 -43 -15 -29 -41 -15 -31 16 3 11 2 21 -3 21 -14 0 -21 35 -10 54 13 23
21 20 15 -5z m133 6 c0 -9 -9 -15 -22 -16 l-23 0 23 -9 c12 -5 22 -14 22 -20
0 -14 -13 -13 -29 3 -10 10 -12 9 -9 -5 1 -9 -1 -18 -7 -20 -17 -5 -17 49 0
66 21 20 45 21 45 1z m433 -5 c4 -15 0 -20 -14 -20 -18 0 -26 20 -12 33 11 12
21 8 26 -13z m600 -10 c9 0 19 5 22 10 3 6 12 10 18 10 7 0 0 -10 -15 -21 -16
-11 -28 -27 -28 -35 0 -16 -17 -10 -55 20 -20 16 -20 16 0 31 18 14 21 14 31
0 6 -8 18 -15 27 -15z m-827 -38 c-3 -5 -26 -13 -51 -17 -57 -8 -65 -26 -28
-60 l28 -27 -25 6 c-14 3 -32 6 -41 6 -11 0 -18 11 -21 31 -4 25 0 33 24 45
15 8 28 19 28 25 0 6 10 19 23 29 22 18 22 18 46 -5 13 -12 21 -27 17 -33z
m-380 18 c1 -19 -4 -30 -12 -30 -7 0 -27 -21 -44 -46 -30 -43 -62 -64 -96 -64
-11 0 -13 6 -9 21 4 11 1 34 -6 51 -10 25 -10 31 2 39 8 5 19 8 24 8 6 0 4 -3
-2 -6 -16 -6 -17 -28 -3 -53 12 -23 41 -16 76 18 19 20 24 33 20 54 -4 22 -1
27 17 31 12 2 24 5 27 6 3 0 5 -13 6 -29z m278 5 c4 -11 -3 -19 -21 -26 -32
-12 -38 -7 -23 20 13 25 35 27 44 6z m252 6 c5 -5 25 -13 44 -18 l35 -9 5 -75
c4 -50 8 -68 14 -56 4 9 5 28 2 41 -7 29 9 43 29 26 25 -21 18 -57 -15 -80
-16 -12 -30 -18 -30 -13 0 5 -25 8 -56 8 l-57 0 -18 55 c-20 59 -18 80 6 80
13 0 13 -3 3 -19 -10 -16 -9 -23 6 -39 9 -11 16 -28 14 -39 -2 -14 4 -19 35
-21 20 -2 37 0 38 5 0 4 2 23 5 41 3 25 0 32 -14 32 -9 1 -28 7 -42 15 -23 12
-23 14 -7 21 10 3 23 2 30 -5 6 -6 16 -11 22 -11 28 1 -42 40 -71 40 -24 0
-34 5 -34 15 0 17 40 21 56 6z m-598 -25 c4 -20 -34 -66 -55 -66 -17 0 -16 9
2 54 17 40 47 47 53 12z m1159 9 c8 -23 -7 -33 -19 -12 -7 14 -13 15 -23 7 -8
-6 -12 -17 -9 -25 9 -22 -14 -27 -26 -5 -9 16 -8 25 1 36 16 19 68 18 76 -1z
m-419 -22 c-5 -23 -23 -20 -26 4 -3 18 0 21 13 17 9 -4 15 -13 13 -21z m32
-35 c0 -30 -1 -31 -17 -16 -13 14 -14 20 -3 32 18 22 20 20 20 -16z m-690 -4
c0 -14 -3 -23 -7 -21 -5 2 -16 7 -27 11 -15 5 -16 9 -6 21 20 24 40 18 40 -11z
m180 17 c0 -15 -16 -22 -34 -15 -25 9 -19 24 9 24 14 0 25 -4 25 -9z m-67 -30
c11 -19 29 -32 49 -36 27 -6 29 -9 14 -17 -14 -8 -25 -5 -45 9 -14 11 -34 22
-43 26 -21 7 -25 47 -5 47 7 0 20 -13 30 -29z m236 -24 c29 -61 30 -69 14 -74
-8 -3 -13 4 -13 16 0 11 -13 36 -30 54 -34 39 -38 57 -12 57 11 0 26 -19 41
-53z m597 19 c-6 -24 -42 -53 -53 -43 -3 3 8 21 23 41 31 39 40 39 30 2z m54
11 c0 -13 -5 -28 -12 -35 -8 -8 -5 -16 13 -32 32 -27 68 -35 90 -21 25 15 29
14 29 -9 0 -26 -25 -36 -45 -20 -9 7 -19 10 -22 6 -4 -4 -1 -11 7 -16 11 -7
12 -12 3 -21 -9 -9 -19 -4 -42 22 -17 19 -39 34 -49 34 -22 0 -28 38 -7 55 8
7 15 23 15 36 0 13 5 24 10 24 6 0 10 -10 10 -23z m-784 -2 c4 -8 3 -23 -1
-32 -7 -16 -9 -16 -12 -2 -3 11 -12 15 -27 12 -13 -3 -27 0 -30 6 -5 7 2 11
18 11 14 0 26 5 26 10 0 16 20 12 26 -5z m224 -22 c0 -15 -19 -17 -40 -3 -13
8 -12 11 5 24 20 15 35 6 35 -21z m453 7 c-9 -16 -23 -30 -30 -30 -19 0 -16
10 9 37 30 32 42 29 21 -7z m191 14 c21 -8 20 -47 -2 -67 -21 -20 -48 -7 -38
18 5 14 9 15 21 5 22 -18 31 -3 12 18 -26 28 -23 38 7 26z m-1023 -41 c12 -31
11 -43 -1 -43 -10 0 -40 52 -40 69 0 19 31 -1 41 -26z m-81 17 c0 -6 -7 -13
-16 -17 -8 -3 -20 -16 -25 -29 -11 -31 -26 -31 -26 1 0 15 9 32 20 40 25 17
47 19 47 5z m427 -26 c10 -28 -13 -37 -25 -9 -10 21 -9 25 4 25 8 0 17 -7 21
-16z m368 0 c9 -9 13 -19 10 -22 -3 -3 -11 0 -17 6 -7 7 -27 12 -46 12 -19 0
-31 4 -27 10 10 16 62 12 80 -6z m402 -19 c20 -32 21 -35 4 -35 -10 0 -27 10
-39 23 -17 18 -19 26 -10 35 17 17 20 15 45 -23z m63 28 c0 -18 -23 -41 -35
-37 -26 10 -18 42 10 42 14 0 25 -2 25 -5z m-1120 -18 c7 -8 19 -15 26 -15 17
0 18 -14 3 -42 -14 -26 -6 -32 41 -30 30 2 40 -1 40 -12 0 -15 18 -32 26 -24
2 3 -3 19 -11 36 -14 28 -19 30 -41 22 -32 -12 -44 -13 -44 -1 0 5 13 14 30
19 19 7 28 16 24 25 -3 8 2 19 10 26 20 17 72 0 70 -23 -2 -21 5 -20 23 2 13
16 14 16 11 -2 -2 -10 -11 -24 -21 -30 -15 -9 -22 -7 -37 12 -18 21 -40 30
-40 15 0 -5 16 -21 35 -36 41 -33 42 -36 15 -65 -27 -29 -44 -28 -58 3 -16 35
-35 31 -71 -12 -25 -31 -32 -35 -40 -24 -6 10 -5 24 4 42 16 30 16 89 0 88
-26 -3 -35 3 -35 21 0 24 22 26 40 5z m725 0 c0 -5 -10 -11 -22 -13 -16 -2
-23 2 -23 13 0 11 7 15 23 13 12 -2 22 -7 22 -13z m-855 -24 c0 -21 -23 -44
-33 -34 -11 10 -8 38 5 51 14 14 28 6 28 -17z m40 -9 c-17 -6 -11 -19 10 -25
33 -9 22 -25 -16 -24 -33 1 -35 3 -29 26 10 38 26 55 36 39 5 -7 4 -14 -1 -16z
m700 18 c0 -5 -14 -10 -31 -10 -17 0 -28 4 -24 10 3 6 17 10 31 10 13 0 24 -4
24 -10z m210 -2 c0 -6 10 -22 21 -34 23 -24 20 -54 -4 -54 -8 0 -17 14 -20 33
-3 17 -8 40 -12 50 -4 10 -3 17 4 17 6 0 11 -5 11 -12z m-474 -9 c3 -6 20 -17
38 -25 29 -13 30 -13 6 -13 -44 -1 -70 10 -70 30 0 21 15 25 26 8z m442 -1
c20 -20 15 -65 -8 -71 -15 -4 -20 -14 -20 -41 0 -29 -4 -36 -20 -36 -25 0 -40
28 -33 63 3 16 -1 37 -10 51 -15 23 -15 24 6 30 12 3 25 0 29 -7 6 -9 11 -7
19 6 12 20 21 21 37 5z m-968 -51 c5 -12 9 -19 9 -15 1 4 22 -4 47 -17 26 -14
58 -25 70 -25 13 0 24 -4 24 -10 0 -24 -111 -5 -117 20 -3 11 -11 16 -23 13
-31 -8 -60 15 -60 48 0 27 2 29 21 19 11 -6 24 -21 29 -33z m151 24 c22 -18
22 -19 6 -45 -18 -27 -25 -30 -52 -20 -14 6 -13 8 6 18 29 14 34 30 14 50 -23
22 -2 20 26 -3z m593 -21 c-7 -41 -4 -44 59 -64 10 -3 16 -10 13 -15 -9 -15
-79 18 -100 46 -17 23 -17 26 -2 35 9 5 16 16 16 23 0 8 5 15 10 15 6 0 8 -15
4 -40z m74 18 c-2 -15 -9 -22 -21 -21 -14 1 -17 -4 -14 -18 3 -12 0 -19 -9
-19 -23 0 -16 46 9 63 31 22 39 21 35 -5z m560 11 c-2 -6 -19 -17 -38 -24 -19
-7 -73 -28 -120 -47 -78 -31 -134 -47 -231 -62 -35 -6 -35 -6 -31 24 4 28 5
29 25 15 31 -21 84 -19 99 4 10 16 15 17 36 8 20 -9 26 -9 30 1 8 24 34 42 61
42 16 0 34 7 42 16 7 9 22 14 35 11 14 -2 25 2 28 9 6 17 69 19 64 3z m-1564
-25 c9 -8 16 -20 16 -26 0 -5 7 -7 16 -4 9 3 34 1 56 -5 31 -8 38 -13 29 -22
-9 -9 -16 -8 -31 1 -11 6 -29 12 -40 12 -30 0 -80 28 -80 45 0 19 15 19 34 -1z
m645 0 c10 -8 -14 -24 -37 -24 -34 0 -57 14 -48 29 7 10 72 6 85 -5z m41 -25
c0 -12 -7 -19 -20 -19 -23 0 -24 4 -9 31 12 23 29 16 29 -12z m120 7 c0 -29
-30 -44 -42 -21 -7 12 -14 13 -29 5 -23 -13 -39 -5 -39 17 0 13 8 14 39 9 23
-3 42 -2 46 4 11 18 25 10 25 -14z m54 -57 c5 -13 0 -18 -25 -23 -18 -3 -34
-4 -36 -2 -3 2 2 19 10 38 8 18 18 42 22 53 7 17 9 15 15 -15 4 -19 10 -42 14
-51z m716 63 c0 -14 -25 -28 -112 -60 -224 -81 -356 -106 -643 -117 -118 -5
-168 -4 -190 5 -16 7 -48 14 -70 16 -70 6 -101 10 -114 18 -7 4 -23 5 -37 2
-15 -4 -33 -1 -46 8 -15 11 -25 12 -34 6 -14 -13 -86 9 -92 28 -5 17 19 15
113 -7 126 -30 217 -40 400 -43 280 -5 533 36 716 115 57 25 105 46 107 46 1
1 2 -7 2 -17z m-691 -27 c22 -38 12 -49 -13 -13 -15 21 -21 48 -12 48 2 0 13
-16 25 -35z m171 11 c0 -30 -14 -40 -46 -32 -31 8 -30 17 4 38 37 22 42 22 42
-6z m200 -9 c0 -28 -7 -37 -25 -31 -10 4 -10 11 -1 30 14 30 26 31 26 1z
m-633 -16 c10 -15 9 -22 -6 -35 -16 -15 -19 -15 -36 4 -10 11 -25 20 -33 20
-12 0 -12 3 -2 15 18 21 63 19 77 -4z m-162 -22 c13 -24 19 -28 30 -19 8 6 29
10 47 8 25 -2 34 -8 36 -25 2 -14 -2 -23 -10 -23 -38 0 -168 25 -168 32 0 12
33 57 42 58 4 0 15 -14 23 -31z m-247 -3 c2 -3 0 -12 -5 -21 -9 -15 -11 -15
-26 -1 -8 9 -20 16 -26 16 -6 0 -11 5 -11 11 0 11 56 6 68 -5z m460 -23 c8
-13 26 -17 78 -19 38 -1 77 3 86 7 13 7 20 4 28 -12 12 -21 11 -21 -129 -17
-78 1 -141 5 -141 7 0 9 46 51 57 51 7 0 16 -8 21 -17z m311 -2 c9 -6 10 -10
2 -16 -15 -8 -41 1 -41 15 0 12 20 13 39 1z m-149 -108 c0 -5 -7 -16 -15 -26
-7 -10 -19 -40 -25 -67 -21 -89 23 -176 104 -204 36 -12 38 -14 19 -24 -11 -6
-43 -14 -71 -18 -59 -8 -72 -25 -14 -19 34 4 35 4 7 -4 -42 -12 -97 -12 -115
-1 -11 7 -5 8 20 4 19 -4 32 -4 29 0 -4 4 -38 12 -75 17 -38 5 -73 14 -78 19
-5 5 4 19 23 36 46 39 90 106 96 150 5 30 1 50 -18 86 l-24 47 56 4 c31 2 62
4 69 5 6 1 12 -1 12 -5z m115 -359 c-46 -37 -110 -57 -179 -58 -47 -1 -71 3
-73 12 -3 6 -18 12 -34 12 -18 0 -28 4 -24 10 3 6 -3 10 -14 10 -11 0 -23 5
-26 10 -9 14 12 12 69 -5 65 -20 159 -18 221 5 64 24 87 25 60 4z"/>
<path d="M1920 1527 c0 -20 5 -27 20 -27 11 0 20 2 20 5 0 3 -9 15 -20 27
l-20 22 0 -27z"/>
<path d="M1045 1520 c-10 -16 4 -30 30 -30 13 0 29 -8 34 -19 13 -24 61 -17
61 9 0 14 -14 23 -54 34 -64 19 -63 19 -71 6z"/>
<path d="M1857 1513 c-7 -12 29 -53 47 -53 23 0 30 19 9 27 -10 3 -25 12 -35
20 -9 8 -18 11 -21 6z"/>
<path d="M1207 1494 c-4 -4 -7 -18 -7 -31 0 -18 5 -23 26 -23 22 0 25 4 22 27
-3 27 -26 41 -41 27z"/>
<path d="M1780 1463 c0 -36 6 -39 45 -21 31 14 33 31 3 26 -13 -2 -28 4 -35
12 -10 13 -12 10 -13 -17z"/>
<path d="M1280 1464 c0 -19 60 -45 87 -38 12 3 43 -6 71 -20 61 -31 62 -31 62
-7 0 21 -56 56 -66 40 -3 -5 -13 -5 -25 2 -11 5 -25 8 -32 6 -7 -2 -16 2 -22
8 -5 7 -25 15 -42 19 -26 4 -33 2 -33 -10z"/>
<path d="M1698 1460 c-7 -11 -18 -20 -25 -20 -7 0 -13 -4 -13 -10 0 -11 66
-12 91 -2 13 6 11 11 -12 30 l-28 23 -13 -21z"/>
<path d="M1594 1439 c-3 -6 -19 -9 -35 -5 -16 3 -29 1 -29 -4 0 -15 23 -24 65
-25 35 0 40 2 40 22 0 24 -28 32 -41 12z"/>
</g>
</svg>